<?xml version="1.0" encoding="UTF-8"?>
<!-- Created with Inkscape (http://www.inkscape.org/) -->
<svg width="379.54mm" height="449.36mm" version="1.1" viewBox="0 0 .0018073 .001513" xml:space="preserve" xmlns="http://www.w3.org/2000/svg"><defs><filter id="filter7464" x="-.19678" y="-.19678" width="1.3936" height="1.3936" color-interpolation-filters="sRGB"><feGaussianBlur stdDeviation="141.23386"/></filter></defs><g transform="translate(.00022136 .0014411)"><g><path d="m-1.6331e-4 -0.0016716 3.074e-5 0.0012919c2.19e-5 9.2275e-4 0.0016078 9.2275e-4 0.0016298 0l3.074e-5 -0.0012919z" fill-rule="evenodd" stroke="#000" stroke-width=".00011337"/><path transform="matrix(7.4501e-7 0 0 8.4073e-7 -3.7993e-6 -.0031132)" d="m920.96 1935.7 93.623 511.86 337.01-396.47-174.85 490.09 490.09-174.85-396.47 337.01 511.86 93.623-511.86 93.623 396.47 337.01-490.09-174.85 174.85 490.09-337.01-396.47-93.623 511.86-93.623-511.86-337.01 396.47 174.85-490.09-490.09 174.85 396.47-337.01-511.86-93.623 511.86-93.623-396.47-337.01 490.09 174.85-174.85-490.09 337.01 396.47z" fill="#fff" filter="url(#filter7464)" opacity=".45547" style="paint-order:fill markers stroke"/><path transform="matrix(7.4501e-7 0 0 8.4073e-7 -3.7993e-6 -.0031132)" d="m920.96 1935.7 44.582 694.88 386.05-579.49-308.83 624.08 624.08-308.83-579.49 386.05 694.88 44.582-694.88 44.582 579.49 386.05-624.08-308.83 308.83 624.08-386.05-579.49-44.582 694.88-44.582-694.88-386.05 579.49 308.83-624.08-624.08 308.83 579.49-386.05-694.88-44.582 694.88-44.582-579.49-386.05 624.08 308.83-308.83-624.08 386.05 579.49z" fill="#fff" style="paint-order:fill markers stroke"/></g></g></svg>
