<?xml version="1.0" encoding="UTF-8"?>
<!-- Created with Inkscape (http://www.inkscape.org/) -->
<svg width="472.64mm" height="472.64mm" version="1.1" viewBox="0 0 .0022507 .0015914" xml:space="preserve" xmlns="http://www.w3.org/2000/svg"><g transform="translate(.00039422 .0014849)"><g transform="translate(0 -.0001225)" stroke-linecap="round"><g stroke-linejoin="round"><circle cx=".00073111" cy="-.00056671" r=".0010031" fill="#a00" stroke="#003380" stroke-width=".00024439" style="paint-order:fill markers stroke"/><circle cx=".00073111" cy="-.00056671" r=".00093353" fill="#fff" stroke-width=".00022743" style="paint-order:fill markers stroke"/><circle cx=".00073111" cy="-.00056671" r=".0007943" fill="#a00" stroke-width=".00019351" style="paint-order:fill markers stroke"/><circle cx=".00073111" cy="-.00056671" r=".00064134" fill="#fff" stroke-width=".00015625" style="paint-order:fill markers stroke"/></g><g><circle cx=".00073111" cy="-.00056671" r=".00049738" fill="#a00" stroke-linejoin="round" stroke-width=".00012118" style="paint-order:fill markers stroke"/><circle cx=".00073111" cy="-.00056671" r=".00035363" fill="#a00" stroke-linejoin="round" stroke-width="8.6154e-5" style="paint-order:fill markers stroke"/><path transform="matrix(2.0987e-6 0 0 2.0987e-6 .0040794 .00017632)" d="m-1595.4-767.56 102.53 274.2 292.46 12.779-229.09 182.24 78.222 282.1-244.12-161.57-244.12 161.57 78.222-282.1-229.09-182.24 292.46-12.779z" fill="#fff" stroke="#003380" stroke-width="50" style="paint-order:fill markers stroke"/><path transform="matrix(1.2599e-6 0 0 1.2599e-6 .0027412 -.00011911)" d="m-1595.4-767.56 102.53 274.2 292.46 12.779-229.09 182.24 78.222 282.1-244.12-161.57-244.12 161.57 78.222-282.1-229.09-182.24 292.46-12.779z" fill="#fff" opacity=".69466" stroke="#003380" stroke-width="50" style="paint-order:fill markers stroke"/></g></g></g></svg>
