<?xml version="1.0" encoding="UTF-8"?>
<!-- Created with Inkscape (http://www.inkscape.org/) -->
<svg width="385.52mm" height="505.8mm" version="1.1" viewBox="0 0 .0018358 .001703" xml:space="preserve" xmlns="http://www.w3.org/2000/svg"><g transform="translate(.00068142 .0012348)"><g transform="translate(0 -3.9371e-5)"><path d="m-6.1655e-4 -0.0012717c1.523e-5 -3.957e-5 1.549e-5 -8.156e-5 7.5822e-5 -1.1384e-4 5.112e-4 -1.4405e-4 0.0010368-1.855e-4 0.001596 1.168e-5 4.173e-5 2.99e-5 5.694e-5 6.837e-5 5.055e-5 1.1384e-4 9.424e-5 0.0014685-5.5996e-4 0.0018685-8.0884e-4 0.0020696-2.0461e-5 1.573e-5 -4.0924e-5 2.291e-5 -6.1383e-5 0-7.282e-4 -5.2863e-4 -9.6096e-4 -0.0012414-8.5212e-4 -0.0020813z" color="#000000" fill="#ab602f" stroke="#2d5016" stroke-width="8.063e-5"/><path d="m-6.1655e-4 -0.0012717c1.523e-5 -3.957e-5 1.549e-5 -8.156e-5 7.5822e-5 -1.1384e-4 5.112e-4 -1.4405e-4 0.0010368-1.855e-4 0.001596 1.168e-5 4.173e-5 2.99e-5 5.694e-5 6.837e-5 5.055e-5 1.1384e-4 9.424e-5 0.0014685-5.5996e-4 0.0018685-8.0884e-4 0.0020696-2.0461e-5 1.573e-5 -4.0924e-5 2.291e-5 -6.1383e-5 0-7.282e-4 -5.2863e-4 -9.6096e-4 -0.0012414-8.5212e-4 -0.0020813z" color="#000000" fill="#217821"/><path d="m2.7886e-4 -0.0015079-9.1103e-4 3.8288e-4c-1.069e-5 1.2934e-4 -1.275e-5 2.5547e-4 -5.61e-6 3.7817e-4l0.0015797-6.6388e-4c-2.2593e-4 -6.739e-5 -4.4652e-4 -9.671e-5 -6.6304e-4 -9.717e-5z" fill="#f4c300" stroke-width="0" style="paint-order:fill markers stroke"/><g fill="#2d5016" stroke-linecap="round"><path d="m0.0010359-0.0013806-0.0016665 7.2541e-4c1.181e-5 1.2101e-4 3.3e-5 2.3854e-4 6.4145e-5 3.5236e-4l0.0016811-7.3177e-4c-9.5e-7 -7.221e-5 -3.84e-6 -1.473e-4 -8.85e-6 -2.2542e-4 6.4e-6 -4.547e-5 -8.82e-6 -8.394e-5 -5.055e-5 -1.1384e-4z" stroke="#2d5016" stroke-width="3.78e-6" style="paint-order:fill markers stroke"/><path d="m0.0010303-2.4306e-4 -0.0012957 5.632e-4 3.9109e-5 5.146e-5 0.001235-5.3684e-4z" stroke-width="1.9853e-5" style="paint-order:fill markers stroke"/><path d="m9.8067e-4 -7.786e-5 -0.0011617 5.0498e-4 4.3305e-5 4.964e-5 0.0010881-4.7298e-4z" stroke-width="1.9853e-5" style="paint-order:fill markers stroke"/></g><path d="m3.609e-4 -0.0011585-4.244e-8 4e-8 1.87e-9 -1e-8c-3.3037e-5 4.451e-5 -6.2334e-5 9.317e-5 -8.4123e-5 1.464e-4 -1.8288e-5 4.549e-5 -3.1147e-5 9.518e-5 -3.0171e-5 1.4599e-4 7.0378e-7 4.703e-5 1.6579e-5 9.477e-5 4.7241e-5 1.2651e-4 3.9815e-5 4.181e-5 9.5256e-5 5.605e-5 1.4733e-4 5.611e-5l-7.15e-9 -4e-8h3.477e-8c-9.1655e-6 -6.839e-5 -4.8699e-5 -1.2338e-4 -7.2462e-5 -1.8518e-4 -1.4166e-5 -3.6e-5 -2.0153e-5 -7.878e-5 -6.894e-6 -1.1608e-4 -2.9559e-6 2.585e-5 -2.388e-6 5.273e-5 4.9214e-6 7.772e-5 1.1547e-5 4.254e-5 3.8197e-5 7.612e-5 6.005e-5 1.1178e-4 2.0273e-5 3.062e-5 3.5655e-5 6.587e-5 4.2416e-5 1.0376e-4l3.914e-8 -1.1e-7 1.022e-8 5e-8c1.6652e-5 -4.227e-5 2.9352e-5 -8.751e-5 3.2496e-5 -1.3421e-4 1.9018e-6 -3.331e-5 -3.2702e-6 -6.774e-5 -1.788e-5 -9.691e-5 -2.7164e-5 -5.673e-5 -7.9585e-5 -8.912e-5 -1.068e-4 -1.4572e-4 -1.3313e-5 -2.734e-5 -1.7545e-5 -5.92e-5 -1.6159e-5 -9.01e-5zm-5.3437e-4 7.85e-5 6.61e-9 1.3e-7 -5.208e-8 -1e-7c5.2227e-6 1.0542e-4 2.2416e-5 2.1116e-4 6.2839e-5 3.062e-4 2.0498e-5 4.778e-5 4.7727e-5 9.251e-5 8.334e-5 1.2668e-4 2.8807e-5 2.769e-5 6.4173e-5 4.719e-5 1.0154e-4 5.096e-5 4.1868e-5 4.89e-6 8.3284e-5 -1.074e-5 1.183e-4 -3.658e-5l4.795e-8 -3e-8 1.8217e-6 -1.36e-6 4.794e-8 -4e-8 2.3184e-6 -1.79e-6 8.758e-7 -6.7e-7 4.85e-8 -3e-8 4.1366e-7 -3.3e-7 4.497e-8 -4e-8 4.1421e-7 -3.2e-7 4.551e-8 -4e-8 3.4885e-7 -2.8e-7 1.1023e-7 -7e-8 4.1179e-7 -3.3e-7 4.542e-8 -4e-8 4.1069e-7 -3.3e-7 4.552e-8 -4e-8 2.2235e-7 -1.7e-7 2.3431e-7 -1.9e-7 4.0872e-7 -3.4e-7 4.541e-8 -3e-8 1.4832e-7 -1.1e-7 3.0779e-7 -2.6e-7 4.0631e-7 -3.4e-7 4.542e-8 -3e-8 4.0621e-7 -3.2e-7 4.803e-8 -5e-8 4.0368e-7 -3.2e-7 4.738e-8 -4e-8 1.3647e-7 -1.2e-7 3.1526e-7 -2.6e-7 4.0324e-7 -3.3e-7 4.793e-8 -3e-8 4.0016e-7 -3.5e-7 4.794e-8 -5e-8 4.0136e-7 -3.3e-7 1.7842e-6 -1.51e-6 4.991e-8 -4e-8 8.8743e-7 -7.6e-7c-5.2201e-5 -6.479e-5 -1.2526e-4 -9.566e-5 -1.8674e-4 -1.4553e-4 -3.4419e-5 -2.764e-5 -6.349e-5 -6.57e-5 -7.8202e-5 -1.1164e-4 2.1313e-5 4.187e-5 5.074e-5 7.871e-5 8.7417e-5 1.0262e-4 4.5548e-5 3.053e-5 9.7215e-5 4.637e-5 1.4188e-4 7.892e-5 1.9231e-5 1.363e-5 3.6928e-5 3.01e-5 5.2962e-5 4.849e-5l-3.383e-8 -1.4e-7 7.188e-8 1.1e-7c-2.0539e-5 -7.18e-5 -4.6068e-5 -1.4414e-4 -9.0491e-5 -2.0088e-4 -1.8867e-5 -2.402e-5 -4.1591e-5 -4.399e-5 -6.6916e-5 -5.779e-5 -4.9575e-5 -2.79e-5 -1.0624e-4 -3.136e-5 -1.556e-4 -5.993e-5 -3.4894e-5 -1.971e-5 -6.4169e-5 -5.187e-5 -8.4974e-5 -8.98e-5zm6.272e-4 3.7427e-4c2.1432e-6 3.452e-5 2.9262e-6 6.931e-5 -3.3384e-7 1.0375e-4 -7.1972e-6 9.003e-5 -3.8551e-5 1.7576e-4 -8.4307e-5 2.4796e-4 -8.1381e-6 -4.87e-5 -2.1133e-5 -9.649e-5 -4.0792e-5 -1.4074e-4 -3.0117e-5 -6.989e-5 -7.4902e-5 -1.2979e-4 -1.241e-4 -1.8252e-4 3.7487e-5 5.751e-5 7.7868e-5 1.1371e-4 1.044e-4 1.7948e-4 2.378e-5 5.792e-5 3.4881e-5 1.2281e-4 3.1341e-5 1.8664e-4 -1.1653e-5 1.883e-5 -2.6073e-5 3.569e-5 -3.9716e-5 5.275e-5 -2.1896e-5 -3.072e-5 -4.7266e-5 -5.878e-5 -7.7048e-5 -7.893e-5 -4.3936e-5 -2.998e-5 -9.5682e-5 -3.89e-5 -1.4569e-4 -4.006e-5 1.6094e-5 3.88e-6 3.2273e-5 7.57e-6 4.794e-5 1.357e-5 6.1838e-5 2.241e-5 1.1299e-4 7.258e-5 1.5471e-4 1.2892e-4 -8.1283e-5 9.728e-5 -1.751e-4 1.8217e-4 -2.4148e-4 2.9524e-4 -5.8975e-6 7.91e-6 1.1802e-6 1.695e-5 5.9754e-6 2.293e-5 1.3192e-5 1.734e-5 2.0509e-5 3.961e-5 2.3289e-5 6.223e-5 4.0043e-6 2.518e-5 1.0936e-5 4.999e-5 2.206e-5 7.224e-5 5.1101e-6 7.47e-6 1.089e-5 2.038e-5 2.0801e-5 1.776e-5l3.6456e-6 -3.27e-6c3.4285e-6 -6.07e-6 5.4614e-6 -1.315e-5 6.3209e-6 -2.032e-5l2.62e-8 -1.4e-7 1.68e-8 9e-8 1.3782e-6 -1.07e-5 -1.459e-8 -2.4e-7c8.2006e-6 -7.169e-5 3.4358e-5 -1.3853e-4 6.7155e-5 -1.9912e-4 5.5574e-5 -1.0231e-4 1.2715e-4 -1.9096e-4 1.867e-4 -2.8993e-4 4.8217e-5 -5.217e-5 1.086e-4 -8.476e-5 1.6609e-4 -1.2059e-4 -4.8933e-5 1.746e-5 -9.6335e-5 4.163e-5 -1.3959e-4 7.351e-5 3.2684e-5 -6.206e-5 5.8873e-5 -1.3041e-4 6.5894e-5 -2.0356e-4 5.7213e-6 -5.588e-5 4.3317e-7 -1.1333e-4 -1.4667e-5 -1.6695e-4zm5.0888e-4 -2.691e-5 -4.432e-8 7e-8h-2.51e-9l-4.2526e-6 5.02e-6 -4.685e-8 8e-8 -1.6341e-6 1.87e-6 -4.739e-8 4e-8 -2.7238e-6 3.04e-6 -2.9659e-7 3.4e-7 -4.739e-8 5e-8 -2.9714e-7 3.2e-7 -4.741e-8 4e-8 -2.9702e-7 3.3e-7 -4.685e-8 5e-8 -6.4409e-7 6.9e-7 -4.694e-8 6e-8 -2.9901e-7 3.3e-7 -4.793e-8 5e-8 -2.9902e-7 3.2e-7 -4.794e-8 3e-8 -6.4849e-7 7e-7 -4.749e-8 6e-8 -3.0198e-7 3.2e-7 -4.693e-8 5e-8 -3.0198e-7 3.3e-7 -4.741e-8 4e-8 -3.0261e-7 3.2e-7 -4.74e-8 4e-8 -6.5408e-7 6.9e-7 -4.738e-8 6e-8 -3.1449e-7 3.2e-7 -3.751e-8 4e-8 -3.0505e-7 3.2e-7 -3.4201e-7 3.7e-7 -1.185e-8 1e-8 -4.739e-8 4e-8 -3.0514e-7 3.2e-7 -2.8137e-7 2.8e-7 -4.28e-7 4.4e-7 -4.741e-8 5e-8 -3.0756e-7 3.1e-7 -2.365e-7 2.5e-7 -1.2097e-7 1e-7 -4.684e-8 7e-8 -3.1011e-7 3.1e-7 -4.738e-8 5e-8 -3.1009e-7 3e-7 -1.777e-7 1.8e-7 -1.8023e-7 1.7e-7 -4.684e-8 7e-8 -3.1009e-7 3e-7 -6.176e-8 7e-8 -2.9815e-7 2.9e-7 -4.748e-8 5e-8 -3.1306e-7 2.9e-7 -4.737e-8 7e-8 -3.1253e-7 3e-7 -4.684e-8 6e-8 -3.1316e-7 3e-7 -4.739e-8 5e-8 -3.1503e-7 3e-7 -4.793e-8 5e-8 -3.1251e-7 3.1e-7 -4.936e-8 6e-8 -3.1363e-7 2.8e-7 -4.935e-8 6e-8 -3.1306e-7 3e-7 -4.99e-8 6e-8 -6.7855e-7 6.4e-7 -4.981e-8 5e-8 -3.1559e-7 2.9e-7 -4.935e-8 6e-8 -3.1557e-7 3.1e-7 -2.0394e-7 2e-7 -1.6398e-7 1.4e-7 -4.738e-8 5e-8 -2.1613e-6 2.03e-6 -4.738e-8 4e-8 -6.9205e-7 6.3e-7 -4.936e-8 5e-8 -1.0649e-6 9.9e-7 -5.046e-8 3e-8 -1.0705e-6 9.7e-7 -4.924e-8 5e-8 -1.4524e-6 1.29e-6c-2.1714e-5 1.921e-5 -4.6193e-5 3.42e-5 -7.2422e-5 4.32e-5 -4.6551e-5 1.64e-5 -9.6283e-5 1.414e-5 -1.4298e-4 2.978e-5 -2.4305e-5 7.71e-6 -4.7339e-5 2.025e-5 -6.8174e-5 3.657e-5l-5.047e-8 4e-8 -1.7624e-6 1.4e-6 -2.4418e-7 1.8e-7 -4.936e-8 7e-8 -8.2731e-7 6.6e-7 -5.047e-8 3e-8 -8.7416e-7 7.2e-7 -2.412e-7 2e-7 -4.794e-8 4e-8 -5.1786e-7 4.3e-7 -1.427e-8 1e-8 -6.483e-8 4e-8 -8.0504e-7 6.7e-7 -4.685e-8 5e-8 -2.4165e-7 1.9e-7 -1.1409e-7 1e-7 -4.6356e-7 3.8e-7 -4.739e-8 5e-8 -2.4065e-7 2.1e-7 -4.795e-8 3e-8 -2.3868e-7 1.9e-7 -5.047e-8 5e-8 -2.3803e-7 2e-7 -4.794e-8 3e-8 -2.387e-7 2.1e-7 -5.045e-8 3e-8 -2.3508e-7 2.3e-7 -5.045e-8 3e-8 -2.3869e-7 2.1e-7 -4.794e-8 4e-8 -5.2423e-7 4.5e-7 -4.737e-8 5e-8 -2.3619e-7 2.1e-7 -4.99e-8 4e-8 -2.3617e-7 2e-7 -2.8554e-7 2.6e-7 -4.793e-8 3e-8 -1.0889e-6 9.4e-7 -4.684e-8 6e-8 -2.3617e-7 2e-7 -4.793e-8 3e-8 -2.3563e-7 2.1e-7 -4.748e-8 4e-8 -1.4113e-6 1.27e-6 -4.3595e-6 4e-6h-4.95e-9l-1.2504e-6 1.2e-6h-2.52e-9l-1.7269e-6 1.67e-6c-4.7147e-5 4.553e-5 -8.241e-5 1.0497e-4 -1.1354e-4 1.6583e-4 2.7726e-5 -2.202e-5 5.8054e-5 -3.976e-5 9.022e-5 -5.135e-5 4.9496e-5 -1.875e-5 1.0231e-4 -2.761e-5 1.4793e-4 -5.828e-5l6.269e-6 -4.27e-6 2.4286e-7 -1.6e-7 5.045e-8 -3e-8 8.2568e-7 -6.1e-7 5.035e-8 -3e-8 1.1134e-6 -8e-7 5.045e-8 -4e-8 8.6812e-7 -6.3e-7 2.4036e-7 -1.8e-7 4.991e-8 -4e-8 2.3979e-7 -1.8e-7 4.794e-8 -3e-8 2.3969e-7 -1.9e-7 4.803e-8 -3e-8 2.397e-7 -1.7e-7 5.046e-8 -5e-8 2.3672e-7 -1.8e-7 2.183e-8 -1e-8 2.918e-8 -1e-8 1.3703e-6 -1.05e-6 6.472e-8 -4e-8 1.438e-8 -1e-8 5.0767e-7 -3.9e-7 4.98e-8 -5e-8 2.3486e-7 -1.7e-7 5.045e-8 -5e-8 2.3476e-7 -1.6e-7 5.047e-8 -5e-8 1.3392e-7 -1e-7 1.5074e-7 -1.2e-7 2.343e-7 -1.8e-7 5.045e-8 -3e-8 1.3393e-7 -1.2e-7 1.5128e-7 -1e-7 2.3376e-7 -2e-7 4.793e-8 -4e-8 2.3476e-7 -1.8e-7 5.044e-8 -3e-8 2.3432e-7 -1.8e-7 2.8214e-7 -2.3e-7 5.046e-8 -3e-8 5.243e-8 -6e-8 1.7934e-7 -1.4e-7 1.1264e-6 -9e-7 1.97e-9 -1e-8 5.047e-8 -3e-8 2.3232e-7 -1.7e-7 4.684e-8 -7e-8 2.3234e-7 -1.7e-7 4.99e-8 -4e-8h2.42e-9l7.8882e-7 -6.5e-7 5.046e-8 -3e-8 2.2926e-7 -1.9e-7 4.99e-8 -4e-8 5.0898e-7 -4.1e-7 4.937e-8 -6e-8 2.2925e-7 -1.9e-7 5.047e-8 -3e-8 2.2927e-7 -1.9e-7 5.046e-8 -3e-8 2.2629e-7 -2.1e-7 5.046e-8 -3e-8 5.0546e-7 -4.4e-7 5.036e-8 -3e-8 2.2684e-7 -1.9e-7 5.046e-8 -4e-8 4.6938e-7 -4e-7 3.356e-8 -2e-8 5.045e-8 -4e-8 6.616e-8 -7e-8 2.0996e-7 -1.7e-7 2.2685e-7 -1.9e-7 5.045e-8 -4e-8 2.2685e-7 -1.9e-7 4.925e-8 -5e-8 2.183e-8 -1e-8 1.3038e-6 -1.13e-6 5.048e-8 -3e-8 4.9745e-7 -4.5e-7 5.046e-8 -3e-8 7.6972e-7 -6.8e-7 4.937e-8 -5e-8c1.5334e-5 -1.346e-5 2.931e-5 -2.903e-5 4.2278e-5 -4.551e-5 -1.2319e-5 2.315e-5 -2.83e-5 4.237e-5 -4.6452e-5 5.863e-5l-1.0473e-6 9.4e-7 -5.484e-8 5e-8 -2.1697e-6 1.9e-6 -5.539e-8 3e-8 -5.0493e-7 4.5e-7 -5.539e-8 3e-8 -1.0658e-6 9.1e-7 -5.485e-8 5e-8 -5.0788e-7 4.3e-7 -5.484e-8 5e-8 -5.1042e-7 4.4e-7 -6.1822e-7 5.1e-7 -5.1338e-7 4.2e-7 -3.3654e-7 2.9e-7 -2.3179e-7 1.8e-7 -5.484e-8 5e-8 -5.1347e-7 4.2e-7 -5.485e-8 5e-8 -5.159e-7 4.2e-7 -5.539e-8 4e-8 -5.1589e-7 4.1e-7 -1.1476e-6 9.3e-7 -5.178e-8 6e-8 -1.0983e-6 8.5e-7 -5.429e-8 6e-8 -1.6801e-6 1.31e-6 -5.484e-8 5e-8 -2.8591e-6 2.2e-6c-2.4981e-5 1.89e-5 -5.2867e-5 3.332e-5 -8.0421e-5 4.538e-5 -4.8038e-5 2.162e-5 -9.7426e-5 4.177e-5 -1.4041e-4 7.522e-5l-4.936e-8 6e-8 -4.9331e-7 3.8e-7 -5.044e-8 4e-8 -4.9277e-7 3.9e-7 -4.99e-8 4e-8 -1.0839e-6 8.5e-7 -4.9276e-7 3.9e-7 -4.739e-8 5e-8 -4.9331e-7 3.8e-7 -4.694e-8 5e-8 -4.933e-7 3.9e-7 -4.682e-8 5e-8 -4.9035e-7 3.8e-7 -4.792e-8 4e-8 -4.8969e-7 4e-7 -1.0783e-7 8e-8 -4.3045e-7 3.5e-7 -4.683e-8 5e-8 -4.9033e-7 3.9e-7 -4.794e-8 3e-8 -4.867e-7 4.2e-7 -5.047e-8 3e-8 -2.0863e-6 1.73e-6 -5.045e-8 5e-8 -1.0134e-6 8.6e-7 -5.045e-8 4e-8 -4.8123e-7 4.2e-7 -4.794e-8 3e-8c2.0673e-5 2.552e-5 4.6819e-5 4.557e-5 7.5799e-5 5.551e-5 3.0452e-5 1.063e-5 6.3392e-5 9.35e-6 9.357e-5 -1.19e-6 2.4216e-5 -8.2e-6 4.6697e-5 -2.152e-5 6.7383e-5 -3.802e-5l5.232e-8 -4e-8 2.9732e-6 -2.4e-6 5.288e-8 -4e-8 2.0864e-6 -1.74e-6 5.726e-8 -4e-8 3.746e-7 -3.1e-7 5.232e-8 -6e-8 3.7461e-7 -3.1e-7 5.288e-8 -4e-8 3.745e-7 -3.2e-7 5.186e-8 -5e-8 3.756e-7 -2.9e-7 4.937e-8 -6e-8 3.7449e-7 -3.2e-7 5.046e-8 -4e-8 7.99e-7 -6.7e-7 4.925e-8 -6e-8 3.7461e-7 -3.1e-7 4.992e-8 -6e-8 7.656e-8 -5e-8 3.4838e-7 -2.9e-7 3.6902e-7 -3.4e-7 5.232e-8 -4e-8 3.6911e-7 -3.2e-7 5.286e-8 -4e-8 3.6904e-7 -3.3e-7 5.297e-8 -3e-8 8.733e-8 -1e-7 3.3456e-7 -2.6e-7 3.6846e-7 -3.4e-7 4.99e-8 -5e-8 3.6901e-7 -3.4e-7 4.1946e-7 -3.5e-7 5.188e-8 -5e-8 1.5023e-6 -1.34e-6 1.1912e-7 -1e-7 4.98e-8 -6e-8 2.9058e-7 -2.5e-7 1.2889e-7 -1e-7 3.6351e-7 -3.4e-7 5.244e-8 -4e-8 3.6352e-7 -3.4e-7 5.046e-8 -4e-8 3.6406e-7 -3.2e-7 5.234e-8 -5e-8 3.6351e-7 -3.4e-7 4.991e-8 -5e-8 1.6398e-7 -1.5e-7 2.5242e-7 -2.1e-7 2.4211e-6 -2.25e-6 2.7119e-5 -2.808e-5c7.5798e-5 -8.782e-5 1.2271e-4 -2.0369e-4 1.5259e-4 -3.2241e-4zm-0.0010827 1.519e-4 -3.4992e-5 4.56e-6c-7.5139e-5 1.571e-5 -1.4426e-4 5.816e-5 -2.0507e-4 1.1032e-4l-6.175e-8 5e-8 -4.052e-8 3e-8 8.049e-8 -7e-8 -1.1023e-5 9.13e-6 -1.7597e-5 1.65e-5 1.0473e-7 -9e-8 -2.867e-8 2e-8 -5.678e-8 6e-8 -1.9963e-5 1.921e-5 -3.556e-8 4e-8 -2.7624e-6 2.79e-6 -3.556e-8 3e-8 -8.9405e-7 9.1e-7 -3.554e-8 3e-8 -1.9597e-7 2.1e-7 -3.555e-8 3e-8 -1.9651e-7 2e-7 -3.555e-8 4e-8 -1.9596e-7 2.1e-7 -3.555e-8 3e-8 -1.9651e-7 2e-7 -3.555e-8 3e-8 -1.9596e-7 2.1e-7 -3.611e-8 2e-8 -1.9649e-7 1.9e-7 -3.556e-8 5e-8 -1.9595e-7 2e-7 -3.555e-8 3e-8 -1.9652e-7 2e-7 -3.554e-8 3e-8 -6.5953e-7 6.9e-7 -3.555e-8 3e-8 -1.9403e-7 2e-7 -3.554e-8 3e-8 -4.2748e-7 4.6e-7 -3.61e-8 2e-8 -2.2406e-7 2.4e-7h-7.43e-9l-1.9349e-7 2e-7 -3.499e-8 4e-8 -1.9652e-7 2.1e-7 -3.555e-8 3e-8 -1.965e-7 2e-7 -3.5e-8 4e-8 -1.9404e-7 2e-7 -3.555e-8 3e-8 -2.1331e-7 2.1e-7 -1.819e-8 4e-8 -1.9402e-7 2e-7 -3.556e-8 3e-8 -2.2462e-7 2.3e-7 -6.89e-9 1e-8 -1.9402e-7 2e-7 -3.556e-8 3e-8 -2.1222e-7 2.5e-7 -1.929e-8 1e-8 -2.2958e-7 2.2e-7 -1.8216e-7 1.8e-7 -3.005e-8 5e-8 -1.874e-8 2e-8 -1.9403e-7 1.9e-7 -3.555e-8 5e-8 -1.9347e-7 2.1e-7 -3.556e-8 3e-8 -2.1277e-7 2.2e-7 -1.928e-8 1e-8 -1.9349e-7 2.1e-7 -3.554e-8 3e-8 -1.9348e-7 2.1e-7 -3.555e-8 4e-8 -1.9348e-7 2.1e-7 -3.555e-8 3e-8 -2.1331e-7 2.1e-7 -1.875e-8 2e-8 -1.9347e-7 2e-7 -3.555e-8 4e-8 -8.8111e-7 9.2e-7 -3.555e-8 3e-8 -6.5154e-7 7e-7 -3.554e-8 3e-8 -2.5941e-5 2.814e-5 2.6398e-7 4.1e-7c3.2827e-5 -9.6e-6 6.7738e-5 -1.145e-5 1.0096e-4 -2.42e-6 4.9502e-5 1.268e-5 9.0665e-5 4.933e-5 1.3651e-4 7.264e-5 3.9009e-5 2.082e-5 8.2998e-5 2.775e-5 1.252e-4 2.023e-5 5.8913e-5 -1.056e-5 1.1403e-4 -3.958e-5 1.6538e-4 -7.349e-5h-4.96e-9l3.859e-8 -2e-8c-2.7107e-5 9.5e-7 -5.4343e-5 -2.38e-6 -8.0673e-5 -1.028e-5 -5.1052e-5 -1.427e-5 -9.8135e-5 -4.45e-5 -1.5013e-4 -5.463e-5 -3.6147e-5 -7.55e-6 -7.3459e-5 -3.22e-6 -1.0833e-4 9.03e-6 3.4853e-5 -2.141e-5 7.5899e-5 -2.619e-5 1.1482e-4 -2.06e-5 7.6214e-5 1.11e-5 1.4968e-4 4.894e-5 2.2747e-4 4.262e-5l-7.17e-9 -5e-8h3.97e-8c-6.8091e-6 -3.961e-5 -1.9789e-5 -7.875e-5 -4.2356e-5 -1.1007e-4 -1.9897e-5 -2.894e-5 -4.7259e-5 -5.06e-5 -7.738e-5 -6.235e-5 -2.6997e-5 -1.085e-5 -5.5619e-5 -1.416e-5 -8.3981e-5 -1.245e-5z" fill="#f4c300" stroke="#2d5016" stroke-width="9.6056e-6"/></g></g></svg>
