<?xml version="1.0" encoding="UTF-8" standalone="no"?>
<!-- Created with Inkscape (http://www.inkscape.org/) -->

<svg
   width="210mm"
   height="297mm"
   viewBox="0 0 0.001 0.001"
   version="1.1"
   id="svg5"
   xml:space="preserve"
   inkscape:version="1.2 (dc2aeda, 2022-05-15)"
   sodipodi:docname="quiz.svg"
   xmlns:inkscape="http://www.inkscape.org/namespaces/inkscape"
   xmlns:sodipodi="http://sodipodi.sourceforge.net/DTD/sodipodi-0.dtd"
   xmlns:xlink="http://www.w3.org/1999/xlink"
   xmlns="http://www.w3.org/2000/svg"
   xmlns:svg="http://www.w3.org/2000/svg"><sodipodi:namedview
     id="namedview7"
     pagecolor="#d1d1d1"
     bordercolor="#000000"
     borderopacity="0.24705882"
     inkscape:showpageshadow="false"
     inkscape:pageopacity="0"
     inkscape:pagecheckerboard="false"
     inkscape:deskcolor="#d1d1d1"
     inkscape:document-units="px"
     showgrid="false"
     showborder="false"
     borderlayer="false"
     shape-rendering="crispEdges"
     inkscape:zoom="0.058487536"
     inkscape:cx="102.58596"
     inkscape:cy="649.71108"
     inkscape:window-width="1309"
     inkscape:window-height="740"
     inkscape:window-x="1570"
     inkscape:window-y="255"
     inkscape:window-maximized="0"
     inkscape:current-layer="layer1" /><defs
     id="defs2"><linearGradient
       id="linearGradient24797"><stop
         id="stop24789"
         style="stop-color:#f0f0f0;stop-opacity:1;"
         offset="0" /><stop
         id="stop24791"
         style="stop-color:#f4f4f4"
         offset=".5" /><stop
         id="stop24793"
         style="stop-color:#eeeeee;stop-opacity:1;"
         offset="0.78274" /><stop
         id="stop24795"
         style="stop-color:#d0d0d0;stop-opacity:1;"
         offset="1" /></linearGradient><linearGradient
       id="linearGradient14035"
       inkscape:swatch="solid"><stop
         style="stop-color:#a05a2c;stop-opacity:1;"
         offset="0"
         id="stop14033" /></linearGradient><filter
       inkscape:collect="always"
       style="color-interpolation-filters:sRGB"
       id="filter7464"
       x="-0.196781"
       y="-0.196781"
       width="1.393562"
       height="1.393562"><feGaussianBlur
         inkscape:collect="always"
         stdDeviation="141.23386"
         id="feGaussianBlur7466" /></filter><linearGradient
       id="linearGradient4705"
       y2="531.27"
       gradientUnits="userSpaceOnUse"
       y1="528.84"
       gradientTransform="matrix(4.3529338e-6,0,0,4.3529338e-6,6.2775849e-4,0.00110838)"
       x2="643.68"
       x1="206.85"
       inkscape:collect="always"><stop
         id="stop3169-6"
         style="stop-color:#fffdd2;stop-opacity:.75439"
         offset="0" /><stop
         id="stop3171-8"
         style="stop-color:#ffefc8;stop-opacity:0.82455999;"
         offset="0.11353" /><stop
         id="stop3173-8"
         style="stop-color:#fff7c3;stop-opacity:0.83332998;"
         offset="0.54392999" /><stop
         id="stop3175-2"
         style="stop-color:#fff0ce;stop-opacity:0.82455999;"
         offset="0.81915998" /><stop
         id="stop3177-0"
         style="stop-color:#fff1b9;stop-opacity:0.81579;"
         offset="1" /></linearGradient><linearGradient
       id="linearGradient4431-7"
       y2="475.34"
       xlink:href="#linearGradient3182-5-4"
       gradientUnits="userSpaceOnUse"
       x2="220.55"
       y1="475.34"
       x1="676.19"
       inkscape:collect="always"
       gradientTransform="matrix(4.3529338e-6,0,0,4.3529338e-6,6.2773311e-4,0.00110838)" /><linearGradient
       id="linearGradient3182-5-4"><stop
         id="stop3184-6-1"
         style="stop-color:#e7e7e7;stop-opacity:1;"
         offset="0" /><stop
         id="stop3192-2-4"
         style="stop-color:#f4f4f4"
         offset=".5" /><stop
         id="stop3194-0-6"
         style="stop-color:#ffffff;stop-opacity:1;"
         offset="0.78274" /><stop
         id="stop3186-3-0"
         style="stop-color:#f5f5f5;stop-opacity:1;"
         offset="1" /></linearGradient><linearGradient
       id="linearGradient4760"
       y2="526.30597"
       xlink:href="#linearGradient24797"
       gradientUnits="userSpaceOnUse"
       y1="531.27"
       x2="665.50732"
       x1="252.63"
       inkscape:collect="always"
       gradientTransform="matrix(4.3529338e-6,0,0,4.3529338e-6,6.2773311e-4,0.00110838)" /><linearGradient
       id="linearGradient4823"
       y2="475.34"
       gradientUnits="userSpaceOnUse"
       x2="220.55"
       y1="475.34"
       x1="676.19"
       inkscape:collect="always"
       gradientTransform="matrix(4.3529338e-6,0,0,4.3529338e-6,6.2773311e-4,0.00110838)"><stop
         id="stop13332"
         style="stop-color:#acacac"
         offset="0" /><stop
         id="stop13334"
         style="stop-color:#f3f3f3;stop-opacity:0;"
         offset="1" /></linearGradient><radialGradient
       id="radialGradient7264"
       gradientUnits="userSpaceOnUse"
       cy="405.24"
       cx="344.92"
       gradientTransform="matrix(5.3467086e-6,-1.5716703e-7,2.0221989e-7,6.8780707e-6,6.5015943e-4,6.1945513e-4)"
       r="115.75"
       inkscape:collect="always"><stop
         id="stop5893"
         style="stop-color:#fffefa;stop-opacity:1;"
         offset="0" /><stop
         id="stop5895"
         style="stop-color:#f2e6ac;stop-opacity:1;"
         offset="0.47354999" /><stop
         id="stop5897"
         style="stop-color:#f6f6f6;stop-opacity:1;"
         offset="0.69520003" /><stop
         id="stop5899"
         style="stop-color:#f0f0e7;stop-opacity:1;"
         offset="0.84684998" /><stop
         id="stop5901"
         style="stop-color:#c3c3c3;stop-opacity:0.55555558;"
         offset="1" /></radialGradient></defs><g
     inkscape:label="Layer 1"
     inkscape:groupmode="layer"
     id="layer1"><g
       id="g7891"><path
         id="path7792"
         sodipodi:nodetypes="cccc"
         style="fill:none;stroke:#000000;stroke-width:0.00000252;stroke-linecap:round;stroke-linejoin:round;stroke-dasharray:none;stroke-dashoffset:3.003"
         inkscape:connector-curvature="0"
         d="m 7.3978155e-4,-0.00200256 c -5.5386e-7,-1.57e-6 2.99993e-5,3.281e-5 2.99993e-5,3.281e-5 l -1.081388e-5,-3.114e-5 z" /><path
         id="path7794"
         sodipodi:nodetypes="ccccc"
         style="fill:none;stroke:#000000;stroke-width:0.00000252;stroke-linecap:round;stroke-linejoin:round;stroke-dasharray:none;stroke-dashoffset:3.003"
         inkscape:connector-curvature="0"
         d="m 7.3961325e-4,-0.00200282 1.43584e-5,-1.368e-5 1.026762e-5,-7.7e-7 -6.21385e-6,1.621e-5 z" /><path
         id="path7796"
         sodipodi:nodetypes="ccccc"
         style="fill:none;stroke:#000000;stroke-width:0.00000252;stroke-linecap:round;stroke-linejoin:round;stroke-dasharray:none;stroke-dashoffset:3.003"
         inkscape:connector-curvature="0"
         d="m 7.7754481e-4,-0.0020179 1.074111e-5,8.2e-7 1.057564e-5,1.29e-5 -1.982714e-5,3.14e-6 z" /><path
         id="path7798"
         sodipodi:nodetypes="ccccc"
         style="fill:none;stroke:#000000;stroke-width:0.00000252;stroke-linecap:round;stroke-linejoin:round;stroke-dasharray:none;stroke-dashoffset:3.003"
         inkscape:connector-curvature="0"
         d="m 7.6392574e-4,-0.00201722 1.329121e-5,-6.9e-7 2.00312e-6,1.706e-5 -2.119501e-5,-2e-8 z" /><path
         id="path7800"
         sodipodi:nodetypes="cccc"
         style="fill:none;stroke:#000000;stroke-width:0.00000252;stroke-linecap:round;stroke-linejoin:round;stroke-dasharray:none;stroke-dashoffset:3.003"
         inkscape:connector-curvature="0"
         d="m 7.6998926e-4,-0.00196993 2.906424e-5,-3.426e-5 -1.98275e-5,3.33e-6 z" /><path
         id="path7802"
         sodipodi:nodetypes="cc"
         style="fill:#ffffff;stroke:#000000;stroke-width:0.00000112447;stroke-linecap:round;stroke-linejoin:round;stroke-dashoffset:3.003"
         inkscape:connector-curvature="0"
         d="m 7.6904549e-4,-0.00204186 4.8604e-7,1.799e-5" /><path
         id="path7804"
         style="fill:#ffffff;stroke:#000000;stroke-width:0.00000112447;stroke-linecap:round;stroke-linejoin:round;stroke-dashoffset:3.003"
         inkscape:connector-curvature="0"
         d="m 7.8613529e-4,-0.00202351 7.411e-6,-1.154e-5" /><path
         id="path7806"
         sodipodi:nodetypes="cc"
         style="fill:none;stroke:#000000;stroke-width:0.00000112447;stroke-linecap:round;stroke-linejoin:round;stroke-dashoffset:3.003"
         inkscape:connector-curvature="0"
         d="m 7.9954294e-4,-0.00200949 1.050225e-5,-6.63e-6" /><path
         id="path7808"
         sodipodi:nodetypes="cc"
         style="fill:none;stroke-width:0.000000562237"
         inkscape:connector-curvature="0"
         d="m 7.920216e-4,-0.00198889 1.097775e-5,6.07e-6" /><path
         id="path7810"
         sodipodi:nodetypes="cc"
         style="fill:none;stroke:#000000;stroke-width:0.00000112447;stroke-linecap:round;stroke-linejoin:round;stroke-dashoffset:3.003"
         inkscape:connector-curvature="0"
         d="m 7.230678e-4,-0.00201541 1.295644e-5,6.57e-6" /><path
         id="path7812"
         sodipodi:nodetypes="cc"
         style="fill:#ffffff;stroke:#000000;stroke-width:0.00000112447;stroke-linecap:round;stroke-linejoin:round;stroke-dashoffset:3.003"
         inkscape:connector-curvature="0"
         d="m 7.4525058e-4,-0.00203296 5.1781e-6,1.135e-5" /><path
         id="path7820"
         d="m 7.4305717e-4,-0.00198782 -8.26105e-6,7.21e-6"
         style="fill:none;stroke:#000000;stroke-width:0.00000112447;stroke-linecap:round"
         inkscape:connector-curvature="0" /><path
         id="path7822"
         d="m 7.9280883e-4,-0.00198625 5.61698e-6,6.23e-6"
         style="fill:none;stroke:#000000;stroke-width:0.00000112447;stroke-linecap:round;stroke-linejoin:round;stroke-dashoffset:3.003"
         inkscape:connector-curvature="0" /></g><circle
       style="fill:#aa0000;fill-opacity:1;stroke-width:0.000244394;stroke-linecap:round;stroke-linejoin:round;paint-order:fill markers stroke;stroke:#003380;stroke-opacity:1"
       id="circle970"
       cx="-9.888014e-05"
       cy="0.00029325063"
       r="0.0010031414"
       inkscape:export-filename="four-shields.svg"
       inkscape:export-xdpi="96"
       inkscape:export-ydpi="96" /><circle
       style="fill:#ffffff;stroke-width:0.000227434;stroke-linecap:round;stroke-linejoin:round;paint-order:fill markers stroke;fill-opacity:1"
       id="circle347"
       cx="-9.888014e-05"
       cy="0.00029325063"
       r="0.00093352684" /><circle
       style="fill:#aa0000;stroke-width:0.000193514;stroke-linecap:round;stroke-linejoin:round;paint-order:fill markers stroke"
       id="circle345"
       cx="-9.888014e-05"
       cy="0.00029325063"
       r="0.00079429772" /><circle
       style="fill:#ffffff;stroke-width:0.000156249;stroke-linecap:round;stroke-linejoin:round;paint-order:fill markers stroke"
       id="circle343"
       cx="-9.888014e-05"
       cy="0.00029325063"
       r="0.00064133975" /><circle
       style="fill:#aa0000;stroke-width:0.000121177;stroke-linecap:round;stroke-linejoin:round;paint-order:fill markers stroke;fill-opacity:1"
       id="circle341"
       cx="-9.888014e-05"
       cy="0.00029325063"
       r="0.00049737922" /><circle
       style="fill:#aa0000;stroke-width:0.0000861541;stroke-linecap:round;stroke-linejoin:round;paint-order:fill markers stroke;fill-opacity:1"
       id="path181"
       cx="-9.888014e-05"
       cy="0.00029325063"
       r="0.00035362694" /><path
       sodipodi:type="star"
       style="fill:#ffffff;fill-opacity:1;stroke:#003380;stroke-width:50;stroke-linecap:round;stroke-linejoin:miter;stroke-dasharray:none;stroke-opacity:1;paint-order:fill markers stroke"
       id="path2573"
       inkscape:flatsided="false"
       sodipodi:sides="5"
       sodipodi:cx="-1595.4337"
       sodipodi:cy="-352.23862"
       sodipodi:r1="415.31824"
       sodipodi:r2="174.43365"
       sodipodi:arg1="-1.5707963"
       sodipodi:arg2="-0.9424778"
       inkscape:rounded="-3.469447e-18"
       inkscape:randomized="0"
       d="m -1595.4337,-767.55685 102.5295,274.19844 292.4616,12.77941 -229.0949,182.24335 78.2217,282.096552 -244.1179,-161.565862 -244.118,161.565849 78.2217,-282.096539 -229.0948,-182.24337 292.4616,-12.77939 z"
       transform="matrix(2.0986633e-6,0,0,2.0986633e-6,0.0032494,0.00103628)"
       inkscape:transform-center-x="-0.0012936278"
       inkscape:transform-center-y="-66.064973" /><path
       sodipodi:type="star"
       style="fill:#ffffff;fill-opacity:1;stroke-width:50.00000024;stroke-linecap:round;stroke-linejoin:miter;paint-order:fill markers stroke;stroke:#003380;stroke-dasharray:none;stroke-opacity:1;opacity:0.69465649"
       id="path1162"
       inkscape:flatsided="false"
       sodipodi:sides="5"
       sodipodi:cx="-1595.4337"
       sodipodi:cy="-352.23862"
       sodipodi:r1="415.31824"
       sodipodi:r2="174.43365"
       sodipodi:arg1="-1.5707963"
       sodipodi:arg2="-0.9424778"
       inkscape:rounded="-3.469447e-18"
       inkscape:randomized="0"
       d="m -1595.4337,-767.55685 102.5295,274.19844 292.4616,12.77941 -229.0949,182.24335 78.2217,282.096552 -244.1179,-161.565862 -244.118,161.565849 78.2217,-282.096539 -229.0948,-182.24337 292.4616,-12.77939 z"
       transform="matrix(1.2599206e-6,0,0,1.2599206e-6,0.00191124,7.4084741e-4)"
       inkscape:transform-center-x="-7.510107e-06"
       inkscape:transform-center-y="-39.65936" /><path
       id="path3282"
       style="fill:#000000;fill-opacity:1;fill-rule:evenodd;stroke:#000000;stroke-width:0.000113368;stroke-dasharray:none"
       d="m 0.00176107,-6.1630514e-4 3.074e-5,0.00129186 c 2.19e-5,9.2274514e-4 0.00160778,9.2274514e-4 0.00162976,0 l 3.074e-5,-0.00129186 z"
       inkscape:export-filename="shield-black-white.svg"
       inkscape:export-xdpi="96"
       inkscape:export-ydpi="96" /><path
       id="path3216"
       style="fill:#000000;fill-rule:evenodd;stroke-width:4.28141e-06"
       d="m 0.00131288,-0.00160423 c -9.04e-6,6.33e-6 -3.694e-5,2.396e-5 -4.372e-5,2.864e-5 -6.99e-6,4.89e-6 -8.51e-6,1.718e-5 -1.89e-6,1.734e-5 6.57e-6,2.5e-7 9.139e-5,-1.368e-5 9.579e-5,-1.541e-5 4.77e-6,-1.93e-6 5.47e-6,-1.738e-5 -7e-7,-2.19e-5 -6.08e-6,-4.4e-6 -4.019e-5,-1.508e-5 -4.948e-5,-8.67e-6 z" /><path
       id="path5156"
       style="color:#000000;fill:#000000;fill-rule:evenodd;stroke-width:4.28141e-06"
       d="m 0.00150036,-0.001588 c -2.59e-6,1.299e-5 2.803e-5,3.148e-5 3.925e-5,3.925e-5 1.15e-5,7.89e-6 4.713e-5,-1.32e-6 3.887e-5,-1.25e-5 -8.18e-6,-1.084e-5 -1.829e-5,-2.753e-5 -2.942e-5,-3.657e-5 z" /><path
       id="path5178"
       style="color:#000000;fill:#000000;fill-rule:evenodd;stroke:#ffffff;stroke-width:4.28141e-06px;stroke-linejoin:round"
       d="m 0.00132825,-0.00226209 c -1.331e-5,6.913e-5 -3.119e-5,1.8748e-4 -3.497e-5,2.1427e-4 -3.74e-6,2.692e-5 -5.59e-6,3.798e-5 -6.78e-6,5.585e-5 -1.11e-6,1.71e-5 -1.155e-5,2.5722e-4 -1.434e-5,3.7775e-4 1.109e-5,1.028e-5 2.42e-5,1.41e-5 3.772e-5,1.582e-5 2.022e-5,6e-6 3.789e-5,5.14e-6 5.207e-5,4.73e-6 8.108e-5,3.382e-5 1.8748e-4,8.14e-6 2.3461e-4,-6.86e-6 2.02e-6,-1.3545e-4 -1.109e-5,-2.393e-4 -2.264e-5,-3.6957e-4 -1.385e-5,-2.783e-5 -5.881e-5,-1.7507e-4 -6.337e-5,-2.8217e-4 4.56e-6,1.071e-4 4.952e-5,2.5434e-4 6.337e-5,2.8217e-4 1.397e-5,2.815e-5 2.811e-5,4.606e-5 5.207e-5,7.08e-5 1.977e-5,-2.506e-5 4.113e-5,-1.5752e-4 4.113e-5,-1.5752e-4 -1.483e-5,-1.721e-5 -1.993e-5,-4.919e-5 -4.228e-5,-7.195e-5 -5.18e-6,-3.103e-5 -1.632e-5,-5.273e-5 -3.095e-5,-7.488e-5 -7.27e-6,-4.344e-5 -1.738e-5,-7.685e-5 -3.579e-5,-1.0775e-4 -7.895e-5,-5.4e-7 -1.659e-4,-2.63e-6 -2.4481e-4,-3.08e-6 -2.268e-5,3.793e-5 -4.241e-5,7.931e-5 -5.687e-5,1.2546e-4 -1.213e-5,1.771e-5 -2.314e-5,3.867e-5 -3.247e-5,6.489e-5 -1.146e-5,1.007e-5 -2.704e-5,2.49e-5 -3.571e-5,3.921e-5 1.414e-5,1.2201e-4 4.93e-6,1.8003e-4 3.218e-5,1.8209e-4 2.733e-5,2.05e-6 3.731e-5,-4.06e-5 6.608e-5,-8.914e-5 1.19e-6,-1.787e-5 3.04e-6,-2.893e-5 6.78e-6,-5.585e-5 3.78e-6,-2.679e-5 2.166e-5,-1.4514e-4 3.497e-5,-2.1427e-4 z" /><path
       id="path3210"
       style="color:#000000;fill:none;stroke:#ffffff;stroke-width:4.28141e-06px;stroke-linecap:round"
       d="m 0.00130988,-0.00159819 c 4.4e-6,-2.649e-4 1.574e-5,-3.7356e-4 2.943e-5,-5.522e-4" /><path
       id="path5176"
       style="color:#000000;fill:#000000;fill-rule:evenodd;stroke:#ffffff;stroke-width:4.28141e-06px;stroke-linecap:round"
       d="m 0.0014125,-0.00226735 c -4.11e-5,-1.298e-5 -7.184e-5,-3.102e-5 -1.0603e-4,-5.092e-5 6.806e-5,-6.788e-5 2.971e-5,-1.15e-6 1.3656e-4,-9.127e-5 2.24e-5,7.015e-5 9.041e-5,3.81e-5 1.2411e-4,9.921e-5 -3.325e-5,1.898e-5 -8.314e-5,3.18e-5 -1.3311e-4,4.639e-5" /><path
       id="path6184"
       style="color:#000000;fill:#ece5c9;fill-rule:evenodd;stroke:#000000;stroke-width:4.28141e-06px;stroke-linecap:round;stroke-linejoin:round"
       d="m 0.00162541,-0.00203713 c 1.2e-5,1.22e-5 3.419e-5,3.571e-5 3.962e-5,4.023e-5 5.55e-6,4.69e-6 1.278e-5,1.32e-6 8.46e-6,-3.78e-6 l -1.808e-5,-2.149e-5 1.808e-5,2.149e-5 c 7.03e-6,8.34e-6 2.084e-5,2.67e-6 1.435e-5,-3.74e-6 l -2.335e-5,-2.305e-5 2.335e-5,2.305e-5 c 6.78e-6,6.7e-6 1.434e-5,-1.23e-6 8.67e-6,-6.82e-6 l -2.211e-5,-2.195e-5 2.211e-5,2.195e-5 c 5.71e-6,5.71e-6 1.13e-5,-2.34e-6 7.19e-6,-8.63e-6 -4.11e-6,-6.29e-6 -5.692e-5,-5.125e-5 -6.949e-5,-6.086e-5 -4.98e-6,1.479e-5 -7.61e-6,3.004e-5 -8.8e-6,4.36e-5 z" /><path
       id="path6186"
       style="color:#000000;fill:#ece5c9;fill-rule:evenodd;stroke:#000000;stroke-width:4.28141e-06px;stroke-linecap:round;stroke-linejoin:round"
       d="m 0.0016437,-0.00205308 c 8.06e-6,-6.5e-7 2.166e-5,-1.31e-6 2.412e-5,-5.3e-7 2.43e-6,7e-7 7.65e-6,1.048e-5 1.25e-5,1.11e-5 5.13e-6,6.5e-7 1.298e-5,3.04e-6 1.746e-5,2.8e-7 4.4e-6,-2.59e-6 -4.5e-7,-7.93e-6 -6.16e-6,-9.74e-6 -5.76e-6,-1.8e-6 -1.274e-5,-8.05e-6 -1.771e-5,-1.13e-5 -5.02e-6,-3.29e-6 -5.72e-6,-5.38e-6 -1.233e-5,-8.3e-6 -6.62e-6,-2.92e-6 -1.821e-5,-6.12e-6 -2.737e-5,-9.16e-6" /><path
       id="path6188"
       style="color:#000000;fill:none;stroke:#ffffff;stroke-width:4.28141e-06px;stroke-linecap:round"
       d="m 0.00162611,-0.00192404 c -1.64e-6,-3.32e-5 -1.19e-6,-6.85e-5 0,-1.0454e-4" /><path
       id="path6192"
       style="color:#000000;fill:none;stroke:#ffffff;stroke-width:4.28141e-06px;stroke-linecap:round"
       d="m 0.00158399,-0.00213901 1.151e-5,-7.052e-5" /><path
       id="path6213"
       style="color:#000000;fill:#efd905;fill-rule:evenodd;stroke:#000000;stroke-width:4.28141e-06px"
       d="m 0.00128095,-0.00199953 -6.448e-5,-8.687e-5 -8.301e-5,4.693e-5 7.315e-5,9.542e-5 z" /><path
       id="path4662"
       d="m 0.00119179,-0.00202635 1.255e-5,1.065e-5 -2.25e-6,-1.92e-5"
       style="fill:none;stroke:#000000;stroke-width:0.00000252;stroke-linecap:round;stroke-linejoin:round;stroke-dashoffset:3.003;stroke-dasharray:none"
       inkscape:connector-curvature="0"
       sodipodi:nodetypes="ccc" /><path
       id="path4664"
       d="m 0.0011913,-0.00202611 -2.03e-6,1.994e-5 -5.01e-6,-1.314e-5"
       sodipodi:nodetypes="ccc"
       style="fill:none;stroke:#000000;stroke-width:0.00000252;stroke-linecap:round;stroke-linejoin:round;stroke-dashoffset:3.003;stroke-dasharray:none"
       inkscape:connector-curvature="0" /><path
       id="path4666"
       d="m 0.00120209,-0.002035 1.891e-5,4.94e-6 -9.39e-6,-1.084e-5"
       sodipodi:nodetypes="ccc"
       style="fill:none;stroke:#000000;stroke-width:0.00000252;stroke-linecap:round;stroke-linejoin:round;stroke-dashoffset:3.003;stroke-dasharray:none"
       inkscape:connector-curvature="0" /><path
       id="path4670"
       sodipodi:nodetypes="cccc"
       style="fill:none;stroke:#000000;stroke-width:0.00000252;stroke-linecap:round;stroke-linejoin:round;stroke-dashoffset:3.003;stroke-dasharray:none"
       inkscape:connector-curvature="0"
       d="m 0.00118078,-0.00200052 c -1.38e-6,-9.4e-7 4.361e-5,8.63e-6 4.361e-5,8.63e-6 l -2.717e-5,-1.866e-5 z" /><path
       id="path4674"
       sodipodi:nodetypes="ccccc"
       style="fill:none;stroke:#000000;stroke-width:0.00000252;stroke-linecap:round;stroke-linejoin:round;stroke-dashoffset:3.003;stroke-dasharray:none"
       inkscape:connector-curvature="0"
       d="m 0.00118049,-0.00200063 3.45e-6,-1.953e-5 7.81e-6,-6.71e-6 4.61e-6,1.674e-5 z" /><path
       id="path4676"
       sodipodi:nodetypes="ccccc"
       style="fill:none;stroke:#000000;stroke-width:0.00000252;stroke-linecap:round;stroke-linejoin:round;stroke-dashoffset:3.003;stroke-dasharray:none"
       inkscape:connector-curvature="0"
       d="m 0.0012019,-0.00203516 9.33e-6,-5.81e-6 1.616e-5,4.11e-6 -1.41e-5,1.429e-5 z" /><path
       id="path4678"
       sodipodi:nodetypes="ccccc"
       style="fill:none;stroke:#000000;stroke-width:0.00000252;stroke-linecap:round;stroke-linejoin:round;stroke-dashoffset:3.003;stroke-dasharray:none"
       inkscape:connector-curvature="0"
       d="m 0.00119153,-0.00202664 1.03e-5,-8.48e-6 1.172e-5,1.259e-5 -1.708e-5,1.255e-5 z" /><path
       id="path4680"
       sodipodi:nodetypes="cccc"
       style="fill:none;stroke:#000000;stroke-width:0.00000252;stroke-linecap:round;stroke-linejoin:round;stroke-dashoffset:3.003;stroke-dasharray:none"
       inkscape:connector-curvature="0"
       d="m 0.00122445,-0.00199216 3.09e-6,-4.482e-5 -1.399e-5,1.444e-5 z" /><path
       id="path4682"
       sodipodi:nodetypes="cc"
       style="fill:#ffffff;stroke:#000000;stroke-width:1.12447e-06;stroke-linecap:round;stroke-linejoin:round;stroke-dashoffset:3.003"
       inkscape:connector-curvature="0"
       d="m 0.00118104,-0.00204952 1.106e-5,1.42e-5" /><path
       id="path4684"
       style="fill:#ffffff;stroke:#000000;stroke-width:1.12447e-06;stroke-linecap:round;stroke-linejoin:round;stroke-dashoffset:3.003"
       inkscape:connector-curvature="0"
       d="m 0.00120568,-0.00204488 -8.7e-7,-1.368e-5" /><path
       id="path4686"
       sodipodi:nodetypes="cc"
       style="fill:none;stroke:#000000;stroke-width:1.12447e-06;stroke-linecap:round;stroke-linejoin:round;stroke-dashoffset:3.003"
       inkscape:connector-curvature="0"
       d="m 0.00122479,-0.00204154 4.53e-6,-1.156e-5" /><path
       id="path4688"
       sodipodi:nodetypes="cc"
       style="fill:none;stroke-width:5.62237e-07"
       inkscape:connector-curvature="0"
       d="m 0.00123095,-0.00202049 1.244e-5,-1.62e-6" /><path
       id="path4692"
       sodipodi:nodetypes="cc"
       style="fill:none;stroke:#000000;stroke-width:1.12447e-06;stroke-linecap:round;stroke-linejoin:round;stroke-dashoffset:3.003"
       inkscape:connector-curvature="0"
       d="m 0.0011597,-0.00200096 1.433e-5,-2.39e-6" /><path
       id="path4694"
       sodipodi:nodetypes="cc"
       style="fill:#ffffff;stroke:#000000;stroke-width:1.12447e-06;stroke-linecap:round;stroke-linejoin:round;stroke-dashoffset:3.003"
       inkscape:connector-curvature="0"
       d="m 0.00116716,-0.00202824 1.09e-5,6.07e-6" /><path
       id="path4708"
       d="m 0.00122121,-0.00203024 3.34e-6,3.709e-5"
       sodipodi:nodetypes="cc"
       style="fill:none;stroke:#000000;stroke-width:0.00000126;stroke-linecap:round;stroke-linejoin:round;stroke-dashoffset:3.003;stroke-dasharray:none"
       inkscape:connector-curvature="0" /><path
       id="path4710"
       d="m 0.00120439,-0.00201594 1.99e-5,2.361e-5"
       sodipodi:nodetypes="cc"
       style="fill:none;stroke:#000000;stroke-width:0.00000126;stroke-linecap:round;stroke-linejoin:round;stroke-dashoffset:3.003;stroke-dasharray:none"
       inkscape:connector-curvature="0" /><path
       id="path4712"
       d="m 0.00118944,-0.00200588 3.404e-5,1.342e-5"
       sodipodi:nodetypes="cc"
       style="fill:none;stroke:#000000;stroke-width:0.00000126;stroke-linecap:round;stroke-linejoin:round;stroke-dashoffset:3.003;stroke-dasharray:none"
       inkscape:connector-curvature="0" /><path
       id="path4727"
       d="m 0.00119216,-0.00199059 -2.38e-6,1.07e-5"
       style="fill:none;stroke:#000000;stroke-width:1.12447e-06;stroke-linecap:round"
       inkscape:connector-curvature="0" /><path
       id="path4741"
       d="m 0.00123315,-0.00201883 8.22e-6,1.69e-6"
       style="fill:none;stroke:#000000;stroke-width:1.12447e-06;stroke-linecap:round;stroke-linejoin:round;stroke-dashoffset:3.003"
       inkscape:connector-curvature="0" /><path
       id="path6204"
       style="fill:none;stroke:#000000;stroke-width:4.28141e-06px"
       d="m 0.00103343,-0.0020287 1.015e-5,-7.85e-6 -3.045e-5,-3.916e-5 1.96e-5,-1.521e-5 -7.02e-6,-9.04e-6 -1.961e-5,1.517e-5 -1.064161e-5,-1.365e-5 -1.011e-5,7.85e-6 1.064e-5,1.369e-5 -1.771e-5,1.372e-5 7.07e-6,9.04e-6 1.767161e-5,-1.372e-5 z" /><path
       id="path6215"
       style="color:#000000;fill:#ece5c9;fill-rule:evenodd;stroke:#000000;stroke-width:4.28141e-06px"
       d="m 0.00116654,-0.00198823 c -6.04e-6,1.98e-6 -4.15e-6,1.065e-5 2.26e-6,1.135e-5 6.82e-6,7.3e-7 1.964e-5,-6.05e-6 2.154e-5,-1.283e-5 1.84e-6,-6.78e-6 -4.07e-6,-1.878e-5 -7.2e-6,-1.167e-5 -2.96e-6,6.74e-6 -1.019e-5,1.106e-5 -1.66e-5,1.315e-5 z" /><path
       id="path6217"
       style="color:#000000;fill:#ece5c9;fill-rule:evenodd;stroke:#000000;stroke-width:4.28141e-06px"
       d="m 0.00115565,-0.00199464 c -6.08e-6,1.97e-6 -5.67e-6,1.097e-5 2.22e-6,1.13e-5 7.93e-6,4.1e-7 2.03e-5,-7.64e-6 2.375e-5,-1.393e-5 3.74e-6,-6.66e-6 1.52e-6,-1.796e-5 -5.75e-6,-1.274e-5 -7.56e-6,5.43e-6 -1.385e-5,1.332e-5 -2.022e-5,1.537e-5 z" /><path
       id="path6219"
       style="color:#000000;fill:#ece5c9;fill-rule:evenodd;stroke:#000000;stroke-width:4.28141e-06px"
       d="m 0.0011462,-0.00200742 c -6.08e-6,1.97e-6 -4.15e-6,1.208e-5 3.78e-6,1.241e-5 7.89e-6,3.7e-7 2.503e-5,-7.85e-6 2.749e-5,-1.66e-5 2.39e-6,-8.26e-6 -2.13e-6,-1.352e-5 -9.41e-6,-8.26e-6 -7.52e-6,5.38e-6 -1.545e-5,1.036e-5 -2.186e-5,1.245e-5 z" /><path
       id="path6221"
       style="color:#000000;fill:#ece5c9;fill-rule:evenodd;stroke:#000000;stroke-width:4.28141e-06px"
       d="m 0.0011439,-0.00202328 c -2.76e-6,-4.15e-6 -8.26e-6,1.586e-5 -3.7e-7,1.619e-5 7.93e-6,4.1e-7 2.696e-5,-4.07e-6 3.135e-5,-1.13e-5 4.24e-6,-7.07e-6 -4.35e-6,-1.348e-5 -1.249e-5,-5.63e-6 -7.89e-6,7.64e-6 -1.582e-5,4.68e-6 -1.849e-5,7.4e-7 z" /><path
       id="path6223"
       style="color:#000000;fill:#ece5c9;fill-rule:evenodd;stroke-width:4.28141e-06"
       d="m 0.00143058,-0.00240465 c -7.43e-5,3.473e-5 -3.847e-5,1.0373e-4 -7.15e-6,1.1507e-4 5.009e-5,-2.942e-5 7.126e-5,-7.619e-5 7.15e-6,-1.1507e-4 z" /><path
       id="path6225"
       style="color:#000000;fill:#ece5c9;fill-rule:evenodd;stroke:#000000;stroke-width:4.28141e-06px"
       d="m 0.00142647,-0.00250348 c -5.766e-5,1.11e-6 -5.881e-5,3.994e-5 -4.792e-5,1.0413e-4 1.089e-5,6.424e-5 6.021e-5,5.178e-5 7.241e-5,2.713e-5 1.229e-5,-2.491e-5 9.74e-6,-2.61e-5 1.582e-5,-2.413e-5 6e-6,1.98e-6 8.63e-6,-1.343e-5 1.139e-5,-2.149e-5 2.71e-6,-8.14e-6 6.29e-6,-8.667e-5 -5.17e-5,-8.564e-5 z" /><path
       id="path6231"
       style="color:#000000;fill:#000000;fill-rule:evenodd;stroke-width:4.28141e-06"
       d="m 0.00140157,-0.00238311 c -4.94e-6,-3.58e-6 2e-7,5.63e-6 3.78e-6,5.79e-6 3.65e-6,2.1e-7 -9.5e-7,3.86e-6 8.83e-6,4.56e-6 9.62e-6,7.4e-7 5.06e-6,-5.63e-6 1.06e-5,-4.64e-6 5.47e-6,9e-7 9.83e-6,-1.044e-5 2.47e-6,-6.41e-6 -7.23e-6,3.94e-6 -2.075e-5,4.31e-6 -2.568e-5,7e-7 z" /><path
       id="path6233"
       style="color:#000000;fill:#000000;fill-rule:evenodd;stroke-width:4.28141e-06"
       d="m 0.00137362,-0.00243933 c -9.04e-6,-7.56e-6 -3.09e-5,-5.182e-5 4.114e-5,-4.87e-5 7.167e-5,3.2e-6 8.108e-5,2.116e-5 6.715e-5,5.17e-5 -1.393e-5,-4.56e-6 -9.45e-6,-3.37e-5 -5.77e-5,-3.617e-5 -4.792e-5,-2.46e-6 -4.71e-5,1.159e-5 -5.059e-5,3.317e-5 z" /><path
       id="path6241"
       style="color:#000000;fill:#000000;fill-rule:evenodd;stroke-width:4.28141e-06"
       d="m 0.00139844,-0.0024372 c -4.81e-6,2.1e-7 -9.57e-6,2.9e-7 -1.434e-5,2.5e-7 -3.41e-6,-2e-7 -7.03e-6,3.7e-6 -1.6e-7,4.03e-6 1.48e-6,4e-8 3.74e-6,4.5e-7 3e-6,1.68e-6 -7e-7,1.15e-6 1.72e-6,2.59e-6 3.82e-6,2.59e-6 2.05e-6,0 4.23e-6,-1.56e-6 3.78e-6,-2.63e-6 -3.7e-7,-9.8e-7 2.79e-6,-1.11e-6 3.45e-6,-1.11e-6 2.63e-6,4e-8 3.78e-6,-4.81e-6 4.5e-7,-4.81e-6 z" /><path
       id="path6248"
       style="color:#000000;fill:#000000;fill-rule:evenodd;stroke-width:4.28141e-06"
       d="m 0.0014434,-0.00243678 c -4.77e-6,2e-7 -9.57e-6,2.8e-7 -1.43e-5,2e-7 -3.41e-6,-2e-7 -5.47e-6,3.37e-6 -1.32e-6,3.58e-6 4.16e-6,2e-7 4.85e-6,8e-8 4.28e-6,1.48e-6 -6.2e-7,1.43e-6 1.56e-6,3.28e-6 3.7e-6,3.28e-6 2.05e-6,0 4.07e-6,-1.43e-6 3.61e-6,-2.87e-6 -4.1e-7,-1.4e-6 5.4e-7,-9.1e-7 3.62e-6,-9.1e-7 3.12e-6,4e-8 3.78e-6,-4.76e-6 4.1e-7,-4.76e-6 z" /><path
       id="rect6208"
       style="color:#000000;fill:#efd905;fill-rule:evenodd;stroke:#000000;stroke-width:4.28141e-06px"
       d="m 0.00113477,-0.00204851 6.851e-5,-4.87e-5 1.319e-5,1.081e-5 -7.224e-5,5.067e-5 c -2.88e-6,2.09e-6 -6.87e-6,1.56e-6 -9e-6,-1.36e-6 l -1.77e-6,-2.38e-6 c -2.14e-6,-2.88e-6 -1.56e-6,-6.91e-6 1.31e-6,-9.04e-6 z" /><path
       sodipodi:type="star"
       style="opacity:0.45547074;fill:#ffffff;fill-opacity:1;stroke:none;stroke-width:0;stroke-linecap:round;stroke-linejoin:miter;stroke-dasharray:none;stroke-opacity:1;paint-order:fill markers stroke;filter:url(#filter7464)"
       id="path7462"
       inkscape:flatsided="false"
       sodipodi:sides="12"
       sodipodi:cx="920.95685"
       sodipodi:cy="2796.98"
       sodipodi:r1="861.2652"
       sodipodi:r2="361.73138"
       sodipodi:arg1="-1.5707963"
       sodipodi:arg2="-1.3089969"
       inkscape:rounded="-3.469447e-18"
       inkscape:randomized="0"
       d="m 920.95687,1935.7148 93.62293,511.8595 337.0097,-396.4718 -174.8499,490.0948 490.0948,-174.8499 -396.4719,337.0096 511.8595,93.623 -511.8595,93.623 396.4719,337.0096 -490.0948,-174.8499 174.8498,490.0948 -337.0096,-396.4718 -93.62297,511.8595 L 827.33386,3146.3857 490.32423,3542.8575 665.17412,3052.7627 175.0793,3227.6126 571.55116,2890.6029 59.69165,2796.98 571.55117,2703.357 175.07932,2366.3474 665.17414,2541.1973 490.32427,2051.1024 827.33389,2447.5743 Z"
       transform="matrix(7.4500566e-7,0,0,8.4073264e-7,0.00192058,-0.00205794)"
       inkscape:transform-center-x="-0.0019888855"
       inkscape:transform-center-y="-54.875239" /><path
       sodipodi:type="star"
       style="opacity:1;fill:#ffffff;fill-opacity:1;stroke:none;stroke-width:9.44903e-05;stroke-linecap:round;stroke-linejoin:miter;stroke-dasharray:none;stroke-opacity:1;paint-order:fill markers stroke"
       id="path7286"
       inkscape:flatsided="false"
       sodipodi:sides="12"
       sodipodi:cx="920.95685"
       sodipodi:cy="2796.98"
       sodipodi:r1="861.2652"
       sodipodi:r2="172.25304"
       sodipodi:arg1="-1.5707963"
       sodipodi:arg2="-1.3089969"
       inkscape:rounded="-3.469447e-18"
       inkscape:randomized="0"
       d="m 920.95687,1935.7148 44.58235,694.8815 386.05028,-579.4938 -308.8314,624.0762 624.0763,-308.8313 -579.4939,386.0502 694.8815,44.5824 -694.8815,44.5824 579.4939,386.0502 -624.0763,-308.8313 308.8313,624.0762 L 965.53921,2963.3636 920.95683,3658.2452 876.37448,2963.3636 490.32423,3542.8575 799.15555,2918.7813 175.0793,3227.6126 754.57319,2841.5623 59.69165,2796.98 754.57319,2752.3976 175.07932,2366.3474 799.15556,2675.1787 490.32427,2051.1024 876.37449,2630.5963 Z"
       transform="matrix(7.4500566e-7,0,0,8.4073264e-7,0.00192058,-0.00205794)"
       inkscape:transform-center-x="-0.0019888855"
       inkscape:transform-center-y="-54.875239" /><path
       style="color:#000000;fill:#ab602f;stroke:#2d5016;stroke-width:0.00008063;stroke-dasharray:none;stroke-opacity:1"
       d="m -0.00104028,0.00248099 c 1.523e-5,-3.957e-5 1.549e-5,-8.156e-5 7.582246e-5,-1.1384e-4 5.1119708e-4,-1.4405e-4 0.001036813,-1.855e-4 0.001595963,1.168e-5 4.17348e-5,2.99e-5 5.694847e-5,6.837e-5 5.055017e-5,1.1384e-4 9.423976e-5,0.00146849 -5.5995528e-4,0.00186851 -8.0883047e-4,0.00206964 -2.046122e-5,1.573e-5 -4.092354e-5,2.291e-5 -6.138254e-5,0 C -9.1636334e-4,0.00403368 -0.00114912,0.00332086 -0.00104028,0.00248099 Z"
       id="path22095"
       inkscape:export-filename="shield-green-gold.svg"
       inkscape:export-xdpi="96"
       inkscape:export-ydpi="96" /><path
       style="color:#000000;fill:#217821;fill-opacity:1"
       d="m -0.00104028,0.00248099 c 1.523e-5,-3.957e-5 1.549e-5,-8.156e-5 7.582246e-5,-1.1384e-4 5.1119657e-4,-1.4405e-4 0.001036814,-1.855e-4 0.001595963,1.168e-5 4.173476e-5,2.99e-5 5.694846e-5,6.837e-5 5.055017e-5,1.1384e-4 9.423976e-5,0.00146849 -5.5995553e-4,0.00186851 -8.0883047e-4,0.00206964 -2.04612e-5,1.573e-5 -4.092356e-5,2.291e-5 -6.138254e-5,0 C -9.1636261e-4,0.00403368 -0.00114912,0.00332086 -0.00104028,0.00248099 Z"
       id="path22097" /><path
       id="rect16790"
       style="opacity:1;fill:#f4c300;fill-opacity:1;stroke:#331d0e;stroke-width:0;stroke-linecap:round;stroke-linejoin:miter;stroke-dasharray:none;stroke-opacity:1;paint-order:fill markers stroke"
       d="M -1.4487455e-4,0.00224479 -0.0010559,0.00262767 c -1.069e-5,1.2934e-4 -1.275e-5,2.5547e-4 -5.61e-6,3.7817e-4 L 5.18168e-4,0.00234196 c -2.2593142e-4,-6.739e-5 -4.46516321e-4,-9.671e-5 -6.6304255e-4,-9.717e-5 z" /><path
       id="rect18250"
       style="opacity:1;fill:#2d5016;fill-opacity:1;stroke:#2d5016;stroke-width:0.00000378;stroke-linecap:round;stroke-dasharray:none;stroke-opacity:1;paint-order:fill markers stroke"
       d="M 6.1215064e-4,0.00237209 -0.00105438,0.0030975 c 1.181e-5,1.2101e-4 3.3e-5,2.3854e-4 6.41454e-5,3.5236e-4 l 0.001681143,-7.3177e-4 c -9.5076e-7,-7.221e-5 -3.83786e-6,-1.473e-4 -8.85143e-6,-2.2542e-4 6.39829e-6,-4.547e-5 -8.8171e-6,-8.394e-5 -5.055186e-5,-1.1384e-4 z" /><path
       id="path18454"
       style="opacity:1;fill:#2d5016;fill-opacity:1;stroke-width:0.0000198528;stroke-linecap:round;paint-order:fill markers stroke"
       d="m 6.0654006e-4,0.00350964 -0.001295703,5.632e-4 3.910922e-5,5.146e-5 0.001235042,-5.3684e-4 z" /><path
       id="path18525"
       style="opacity:1;fill:#2d5016;fill-opacity:1;stroke-width:0.0000198528;stroke-linecap:round;paint-order:fill markers stroke"
       d="m 5.5693806e-4,0.00367484 -0.001161735,5.0498e-4 4.330485e-5,4.964e-5 0.001088136,-4.7298e-4 z" /><path
       id="path4202"
       style="fill:#f4c300;fill-opacity:1;stroke:#2d5016;stroke-width:0.00000960562;stroke-dasharray:none;stroke-opacity:1"
       d="m -6.2832698e-5,0.00259416 -4.2445e-8,4e-8 1.87e-9,-10e-9 c -3.3036565e-5,4.451e-5 -6.2334407e-5,9.317e-5 -8.4122637e-5,1.464e-4 -1.828802e-5,4.549e-5 -3.114712e-5,9.518e-5 -3.01712e-5,1.4599e-4 7.0378e-7,4.703e-5 1.657888e-5,9.477e-5 4.724127e-5,1.2651e-4 3.9814542e-5,4.181e-5 9.5255927e-5,5.605e-5 1.47331435e-4,5.611e-5 l -7.145e-9,-4e-8 h 3.4772e-8 c -9.165527e-6,-6.839e-5 -4.8698589e-5,-1.2338e-4 -7.2461976e-5,-1.8518e-4 -1.4166227e-5,-3.6e-5 -2.0152614e-5,-7.878e-5 -6.893964e-6,-1.1608e-4 -2.955896e-6,2.585e-5 -2.387968e-6,5.273e-5 4.921435e-6,7.772e-5 1.154671e-5,4.254e-5 3.8196981e-5,7.612e-5 6.0049559e-5,1.1178e-4 2.027301e-5,3.062e-5 3.5654676e-5,6.587e-5 4.2416468e-5,1.0376e-4 l 3.914e-8,-1.1e-7 1.0213e-8,5e-8 c 1.6651796e-5,-4.227e-5 2.9352182e-5,-8.751e-5 3.2496468e-5,-1.3421e-4 1.901774e-6,-3.331e-5 -3.270156e-6,-6.774e-5 -1.7880135e-5,-9.691e-5 -2.7164495e-5,-5.673e-5 -7.9584668e-5,-8.912e-5 -1.06804577e-4,-1.4572e-4 -1.3313263e-5,-2.734e-5 -1.7544748e-5,-5.92e-5 -1.6158551e-5,-9.01e-5 z m -5.34365162e-4,7.85e-5 6.61e-9,1.3e-7 -5.208e-8,-10e-8 c 5.22274e-6,1.0542e-4 2.241639e-5,2.1116e-4 6.283935e-5,3.062e-4 2.049776e-5,4.778e-5 4.772698e-5,9.251e-5 8.333986e-5,1.2668e-4 2.880656e-5,2.769e-5 6.417335e-5,4.719e-5 1.0153769e-4,5.096e-5 4.186824e-5,4.89e-6 8.328434e-5,-1.074e-5 1.1830253e-4,-3.658e-5 l 4.795e-8,-3e-8 1.82171e-6,-1.36e-6 4.794e-8,-4e-8 2.3184e-6,-1.79e-6 8.758e-7,-6.7e-7 4.85e-8,-3e-8 4.1366e-7,-3.3e-7 4.497e-8,-4e-8 4.1421e-7,-3.2e-7 4.551e-8,-4e-8 3.4885e-7,-2.8e-7 1.1023e-7,-7e-8 4.1179e-7,-3.3e-7 4.542e-8,-4e-8 4.1069e-7,-3.3e-7 4.552e-8,-4e-8 2.2235e-7,-1.7e-7 2.3431e-7,-1.9e-7 4.0872e-7,-3.4e-7 4.541e-8,-3e-8 1.4832e-7,-1.1e-7 3.0779e-7,-2.6e-7 4.0631e-7,-3.4e-7 4.542e-8,-3e-8 4.0621e-7,-3.2e-7 4.803e-8,-5e-8 4.0368e-7,-3.2e-7 4.738e-8,-4e-8 1.3647e-7,-1.2e-7 3.1526e-7,-2.6e-7 4.0324e-7,-3.3e-7 4.793e-8,-3e-8 4.0016e-7,-3.5e-7 4.794e-8,-5e-8 4.0136e-7,-3.3e-7 1.78418e-6,-1.51e-6 4.991e-8,-4e-8 8.8743e-7,-7.6e-7 c -5.220093e-5,-6.479e-5 -1.2526158e-4,-9.566e-5 -1.8673907e-4,-1.4553e-4 -3.441886e-5,-2.764e-5 -6.349032e-5,-6.57e-5 -7.820221e-5,-1.1164e-4 2.131339e-5,4.187e-5 5.074018e-5,7.871e-5 8.741729e-5,1.0262e-4 4.554842e-5,3.053e-5 9.721466e-5,4.637e-5 1.418779e-4,7.892e-5 1.923075e-5,1.363e-5 3.692846e-5,3.01e-5 5.296245e-5,4.849e-5 l -3.383e-8,-1.4e-7 7.188e-8,1.1e-7 c -2.053902e-5,-7.18e-5 -4.606819e-5,-1.4414e-4 -9.049107e-5,-2.0088e-4 -1.886671e-5,-2.402e-5 -4.159108e-5,-4.399e-5 -6.691624e-5,-5.779e-5 -4.957507e-5,-2.79e-5 -1.0623727e-4,-3.136e-5 -1.555959e-4,-5.993e-5 -3.489403e-5,-1.971e-5 -6.416856e-5,-5.187e-5 -8.497412e-5,-8.98e-5 z m 6.27202049e-4,3.7427e-4 c 2.143165e-6,3.452e-5 2.926173e-6,6.931e-5 -3.33839e-7,1.0375e-4 -7.197152e-6,9.003e-5 -3.8551148e-5,1.7576e-4 -8.4307285e-5,2.4796e-4 -8.13808e-6,-4.87e-5 -2.1132563e-5,-9.649e-5 -4.0791533e-5,-1.4074e-4 -3.0117082e-5,-6.989e-5 -7.4901622e-5,-1.2979e-4 -1.24104832e-4,-1.8252e-4 3.748651e-5,5.751e-5 7.786843e-5,1.1371e-4 1.0440004e-4,1.7948e-4 2.3779682e-5,5.792e-5 3.4880612e-5,1.2281e-4 3.1341002e-5,1.8664e-4 -1.165292e-5,1.883e-5 -2.6073352e-5,3.569e-5 -3.9715712e-5,5.275e-5 -2.189614e-5,-3.072e-5 -4.726648e-5,-5.878e-5 -7.704782e-5,-7.893e-5 -4.393648e-5,-2.998e-5 -9.568244e-5,-3.89e-5 -1.456905e-4,-4.006e-5 1.609369e-5,3.88e-6 3.227324e-5,7.57e-6 4.79402e-5,1.357e-5 6.183788e-5,2.241e-5 1.1299276e-4,7.258e-5 1.547066e-4,1.2892e-4 -8.128309e-5,9.728e-5 -1.750971e-4,1.8217e-4 -2.4148414e-4,2.9524e-4 -5.89753e-6,7.91e-6 1.18017e-6,1.695e-5 5.97538e-6,2.293e-5 1.319247e-5,1.734e-5 2.050872e-5,3.961e-5 2.328945e-5,6.223e-5 4.00432e-6,2.518e-5 1.09365e-5,4.999e-5 2.206016e-5,7.224e-5 5.11014e-6,7.47e-6 1.088968e-5,2.038e-5 2.080075e-5,1.776e-5 l 3.64565e-6,-3.27e-6 c 3.42846e-6,-6.07e-6 5.46137e-6,-1.315e-5 6.32094e-6,-2.032e-5 l 2.62e-8,-1.4e-7 1.68e-8,9e-8 1.37818e-6,-1.07e-5 -1.459e-8,-2.4e-7 c 8.20062e-6,-7.169e-5 3.435754e-5,-1.3853e-4 6.715543e-5,-1.9912e-4 5.557406e-5,-1.0231e-4 1.2714523e-4,-1.9096e-4 1.86699203e-4,-2.8993e-4 4.821667403e-5,-5.217e-5 1.08596033e-4,-8.476e-5 1.66092007e-4,-1.2059e-4 -4.893311e-5,1.746e-5 -9.6335374e-5,4.163e-5 -1.39585095e-4,7.351e-5 3.2683708e-5,-6.206e-5 5.8872923e-5,-1.3041e-4 6.5893927e-5,-2.0356e-4 5.721318e-6,-5.588e-5 4.33172e-7,-1.1333e-4 -1.4666573e-5,-1.6695e-4 z m 5.08878591e-4,-2.691e-5 -4.432e-8,7e-8 h -2.51e-9 l -4.25258e-6,5.02e-6 -4.685e-8,8e-8 -1.63412e-6,1.87e-6 -4.739e-8,4e-8 -2.7238e-6,3.04e-6 -2.9659e-7,3.4e-7 -4.739e-8,5e-8 -2.9714e-7,3.2e-7 -4.741e-8,4e-8 -2.9702e-7,3.3e-7 -4.685e-8,5e-8 -6.4409e-7,6.9e-7 -4.694e-8,6e-8 -2.9901e-7,3.3e-7 -4.793e-8,5e-8 -2.9902e-7,3.2e-7 -4.794e-8,3e-8 -6.4849e-7,7e-7 -4.749e-8,6e-8 -3.0198e-7,3.2e-7 -4.693e-8,5e-8 -3.0198e-7,3.3e-7 -4.741e-8,4e-8 -3.0261e-7,3.2e-7 -4.74e-8,4e-8 -6.5408e-7,6.9e-7 -4.738e-8,6e-8 -3.1449e-7,3.2e-7 -3.751e-8,4e-8 -3.0505e-7,3.2e-7 -3.4201e-7,3.7e-7 -1.185e-8,1e-8 -4.739e-8,4e-8 -3.0514e-7,3.2e-7 -2.8137e-7,2.8e-7 -4.28e-7,4.4e-7 -4.741e-8,5e-8 -3.0756e-7,3.1e-7 -2.365e-7,2.5e-7 -1.2097e-7,10e-8 -4.684e-8,7e-8 -3.1011e-7,3.1e-7 -4.738e-8,5e-8 -3.1009e-7,3e-7 -1.777e-7,1.8e-7 -1.8023e-7,1.7e-7 -4.684e-8,7e-8 -3.1009e-7,3e-7 -6.176e-8,7e-8 -2.9815e-7,2.9e-7 -4.748e-8,5e-8 -3.1306e-7,2.9e-7 -4.737e-8,7e-8 -3.1253e-7,3e-7 -4.684e-8,6e-8 -3.1316e-7,3e-7 -4.739e-8,5e-8 -3.1503e-7,3e-7 -4.793e-8,5e-8 -3.1251e-7,3.1e-7 -4.936e-8,6e-8 -3.1363e-7,2.8e-7 -4.935e-8,6e-8 -3.1306e-7,3e-7 -4.99e-8,6e-8 -6.7855e-7,6.4e-7 -4.981e-8,5e-8 -3.1559e-7,2.9e-7 -4.935e-8,6e-8 -3.1557e-7,3.1e-7 -2.0394e-7,2e-7 -1.6398e-7,1.4e-7 -4.738e-8,5e-8 -2.16128e-6,2.03e-6 -4.738e-8,4e-8 -6.9205e-7,6.3e-7 -4.936e-8,5e-8 -1.0649e-6,9.9e-7 -5.046e-8,3e-8 -1.07049e-6,9.7e-7 -4.924e-8,5e-8 -1.45245e-6,1.29e-6 c -2.171389e-5,1.921e-5 -4.619307e-5,3.42e-5 -7.242153e-5,4.32e-5 -4.655082e-5,1.64e-5 -9.628332e-5,1.414e-5 -1.4298407e-4,2.978e-5 -2.430549e-5,7.71e-6 -4.733884e-5,2.025e-5 -6.817426e-5,3.657e-5 l -5.047e-8,4e-8 -1.76245e-6,1.4e-6 -2.4418e-7,1.8e-7 -4.936e-8,7e-8 -8.2731e-7,6.6e-7 -5.047e-8,3e-8 -8.7416e-7,7.2e-7 -2.412e-7,2e-7 -4.794e-8,4e-8 -5.1786e-7,4.3e-7 -1.427e-8,10e-9 -6.483e-8,4e-8 -8.0504e-7,6.7e-7 -4.685e-8,5e-8 -2.4165e-7,1.9e-7 -1.1409e-7,10e-8 -4.6356e-7,3.8e-7 -4.739e-8,5e-8 -2.4065e-7,2.1e-7 -4.795e-8,3e-8 -2.3868e-7,1.9e-7 -5.047e-8,5e-8 -2.3803e-7,2e-7 -4.794e-8,3e-8 -2.387e-7,2.1e-7 -5.045e-8,3e-8 -2.3508e-7,2.3e-7 -5.045e-8,3e-8 -2.3869e-7,2.1e-7 -4.794e-8,4e-8 -5.2423e-7,4.5e-7 -4.737e-8,5e-8 -2.3619e-7,2.1e-7 -4.99e-8,4e-8 -2.3617e-7,2e-7 -2.8554e-7,2.6e-7 -4.793e-8,3e-8 -1.08893e-6,9.4e-7 -4.684e-8,6e-8 -2.3617e-7,2e-7 -4.793e-8,3e-8 -2.3563e-7,2.1e-7 -4.748e-8,4e-8 -1.41132e-6,1.27e-6 -4.3595e-6,4e-6 h -4.95e-9 l -1.25037e-6,1.2e-6 h -2.52e-9 l -1.72687e-6,1.67e-6 c -4.714708e-5,4.553e-5 -8.240994e-5,1.0497e-4 -1.1353657e-4,1.6583e-4 2.772556e-5,-2.202e-5 5.805408e-5,-3.976e-5 9.022015e-5,-5.135e-5 4.949573e-5,-1.875e-5 1.0231058e-4,-2.761e-5 1.4792658e-4,-5.828e-5 l 6.26896e-6,-4.27e-6 2.4286e-7,-1.6e-7 5.045e-8,-3e-8 8.2568e-7,-6.1e-7 5.035e-8,-3e-8 1.11343e-6,-8e-7 5.045e-8,-4e-8 8.6812e-7,-6.3e-7 2.4036e-7,-1.8e-7 4.991e-8,-4e-8 2.3979e-7,-1.8e-7 4.794e-8,-3e-8 2.3969e-7,-1.9e-7 4.803e-8,-3e-8 2.397e-7,-1.7e-7 5.046e-8,-5e-8 2.3672e-7,-1.8e-7 2.183e-8,-10e-9 2.918e-8,-10e-9 1.3703e-6,-1.05e-6 6.472e-8,-4e-8 1.438e-8,-10e-9 5.0767e-7,-3.9e-7 4.98e-8,-5e-8 2.3486e-7,-1.7e-7 5.045e-8,-5e-8 2.3476e-7,-1.6e-7 5.047e-8,-5e-8 1.3392e-7,-1e-7 1.5074e-7,-1.2e-7 2.343e-7,-1.8e-7 5.045e-8,-3e-8 1.3393e-7,-1.2e-7 1.5128e-7,-10e-8 2.3376e-7,-2e-7 4.793e-8,-4e-8 2.3476e-7,-1.8e-7 5.044e-8,-3e-8 2.3432e-7,-1.8e-7 2.8214e-7,-2.3e-7 5.046e-8,-3e-8 5.243e-8,-6e-8 1.7934e-7,-1.4e-7 1.12635e-6,-9e-7 1.97e-9,-1e-8 5.047e-8,-3e-8 2.3232e-7,-1.7e-7 4.684e-8,-7e-8 2.3234e-7,-1.7e-7 4.99e-8,-4e-8 h 2.42e-9 l 7.8882e-7,-6.5e-7 5.046e-8,-3e-8 2.2926e-7,-1.9e-7 4.99e-8,-4e-8 5.0898e-7,-4.1e-7 4.937e-8,-6e-8 2.2925e-7,-1.9e-7 5.047e-8,-3e-8 2.2927e-7,-1.9e-7 5.046e-8,-3e-8 2.2629e-7,-2.1e-7 5.046e-8,-3e-8 5.0546e-7,-4.4e-7 5.036e-8,-3e-8 2.2684e-7,-1.9e-7 5.046e-8,-4e-8 4.6938e-7,-4e-7 3.356e-8,-2e-8 5.045e-8,-4e-8 6.616e-8,-7e-8 2.0996e-7,-1.7e-7 2.2685e-7,-1.9e-7 5.045e-8,-4e-8 2.2685e-7,-1.9e-7 4.925e-8,-5e-8 2.183e-8,-10e-9 1.3038e-6,-1.13e-6 5.048e-8,-3e-8 4.9745e-7,-4.5e-7 5.046e-8,-3e-8 7.6972e-7,-6.8e-7 4.937e-8,-5e-8 c 1.533408e-5,-1.346e-5 2.931046e-5,-2.903e-5 4.227838e-5,-4.551e-5 -1.231883e-5,2.315e-5 -2.830009e-5,4.237e-5 -4.645198e-5,5.863e-5 l -1.04734e-6,9.4e-7 -5.484e-8,5e-8 -2.16974e-6,1.9e-6 -5.539e-8,3e-8 -5.0493e-7,4.5e-7 -5.539e-8,3e-8 -1.06577e-6,9.1e-7 -5.485e-8,5e-8 -5.0788e-7,4.3e-7 -5.484e-8,5e-8 -5.1042e-7,4.4e-7 -6.1822e-7,5.1e-7 -5.1338e-7,4.2e-7 -3.3654e-7,2.9e-7 -2.3179e-7,1.8e-7 -5.484e-8,5e-8 -5.1347e-7,4.2e-7 -5.485e-8,5e-8 -5.159e-7,4.2e-7 -5.539e-8,4e-8 -5.1589e-7,4.1e-7 -1.14762e-6,9.3e-7 -5.178e-8,6e-8 -1.09827e-6,8.5e-7 -5.429e-8,6e-8 -1.68009e-6,1.31e-6 -5.484e-8,5e-8 -2.85911e-6,2.2e-6 c -2.498121e-5,1.89e-5 -5.286699e-5,3.332e-5 -8.042071e-5,4.538e-5 -4.803826e-5,2.162e-5 -9.742625e-5,4.177e-5 -1.4041057e-4,7.522e-5 l -4.936e-8,6e-8 -4.9331e-7,3.8e-7 -5.044e-8,4e-8 -4.9277e-7,3.9e-7 -4.99e-8,4e-8 -1.08388e-6,8.5e-7 -4.9276e-7,3.9e-7 -4.739e-8,5e-8 -4.9331e-7,3.8e-7 -4.694e-8,5e-8 -4.933e-7,3.9e-7 -4.682e-8,5e-8 -4.9035e-7,3.8e-7 -4.792e-8,4e-8 -4.8969e-7,4e-7 -1.0783e-7,8e-8 -4.3045e-7,3.5e-7 -4.683e-8,5e-8 -4.9033e-7,3.9e-7 -4.794e-8,3e-8 -4.867e-7,4.2e-7 -5.047e-8,3e-8 -2.08627e-6,1.73e-6 -5.045e-8,5e-8 -1.01336e-6,8.6e-7 -5.045e-8,4e-8 -4.8123e-7,4.2e-7 -4.794e-8,3e-8 c 2.06728e-5,2.552e-5 4.68186e-5,4.557e-5 7.579932e-5,5.551e-5 3.0452e-5,1.063e-5 6.339186e-5,9.35e-6 9.356982e-5,-1.19e-6 2.421632e-5,-8.2e-6 4.669739e-5,-2.152e-5 6.73827e-5,-3.802e-5 l 5.232e-8,-4e-8 2.97315e-6,-2.4e-6 5.288e-8,-4e-8 2.08637e-6,-1.74e-6 5.726e-8,-4e-8 3.746e-7,-3.1e-7 5.232e-8,-6e-8 3.7461e-7,-3.1e-7 5.288e-8,-4e-8 3.745e-7,-3.2e-7 5.186e-8,-5e-8 3.756e-7,-2.9e-7 4.937e-8,-6e-8 3.7449e-7,-3.2e-7 5.046e-8,-4e-8 7.99e-7,-6.7e-7 4.925e-8,-6e-8 3.7461e-7,-3.1e-7 4.992e-8,-6e-8 7.656e-8,-5e-8 3.4838e-7,-2.9e-7 3.6902e-7,-3.4e-7 5.232e-8,-4e-8 3.6911e-7,-3.2e-7 5.286e-8,-4e-8 3.6904e-7,-3.3e-7 5.297e-8,-3e-8 8.733e-8,-10e-8 3.3456e-7,-2.6e-7 3.6846e-7,-3.4e-7 4.99e-8,-5e-8 3.6901e-7,-3.4e-7 4.1946e-7,-3.5e-7 5.188e-8,-5e-8 1.50226e-6,-1.34e-6 1.1912e-7,-10e-8 4.98e-8,-6e-8 2.9058e-7,-2.5e-7 1.2889e-7,-1e-7 3.6351e-7,-3.4e-7 5.244e-8,-4e-8 3.6352e-7,-3.4e-7 5.046e-8,-4e-8 3.6406e-7,-3.2e-7 5.234e-8,-5e-8 3.6351e-7,-3.4e-7 4.991e-8,-5e-8 1.6398e-7,-1.5e-7 2.5242e-7,-2.1e-7 2.42113e-6,-2.25e-6 2.711925e-5,-2.808e-5 c 7.57975e-5,-8.782e-5 1.2270676e-4,-2.0369e-4 1.5259246e-4,-3.2241e-4 z m -0.001082728,1.519e-4 -3.499194e-5,4.56e-6 c -7.513908e-5,1.571e-5 -1.4425845e-4,5.816e-5 -2.0507322e-4,1.1032e-4 l -6.175e-8,5e-8 -4.052e-8,3e-8 8.049e-8,-7e-8 -1.102318e-5,9.13e-6 -1.759723e-5,1.65e-5 1.0473e-7,-9e-8 -2.867e-8,2e-8 -5.678e-8,6e-8 -1.996302e-5,1.921e-5 -3.556e-8,4e-8 -2.76238e-6,2.79e-6 -3.556e-8,3e-8 -8.9405e-7,9.1e-7 -3.554e-8,3e-8 -1.9597e-7,2.1e-7 -3.555e-8,3e-8 -1.9651e-7,2e-7 -3.555e-8,4e-8 -1.9596e-7,2.1e-7 -3.555e-8,3e-8 -1.9651e-7,2e-7 -3.555e-8,3e-8 -1.9596e-7,2.1e-7 -3.611e-8,2e-8 -1.9649e-7,1.9e-7 -3.556e-8,5e-8 -1.9595e-7,2e-7 -3.555e-8,3e-8 -1.9652e-7,2e-7 -3.554e-8,3e-8 -6.5953e-7,6.9e-7 -3.555e-8,3e-8 -1.9403e-7,2e-7 -3.554e-8,3e-8 -4.2748e-7,4.6e-7 -3.61e-8,2e-8 -2.2406e-7,2.4e-7 h -7.43e-9 l -1.9349e-7,2e-7 -3.499e-8,4e-8 -1.9652e-7,2.1e-7 -3.555e-8,3e-8 -1.965e-7,2e-7 -3.5e-8,4e-8 -1.9404e-7,2e-7 -3.555e-8,3e-8 -2.1331e-7,2.1e-7 -1.819e-8,4e-8 -1.9402e-7,2e-7 -3.556e-8,3e-8 -2.2462e-7,2.3e-7 -6.89e-9,10e-9 -1.9402e-7,2e-7 -3.556e-8,3e-8 -2.1222e-7,2.5e-7 -1.929e-8,1e-8 -2.2958e-7,2.2e-7 -1.8216e-7,1.8e-7 -3.005e-8,5e-8 -1.874e-8,2e-8 -1.9403e-7,1.9e-7 -3.555e-8,5e-8 -1.9347e-7,2.1e-7 -3.556e-8,3e-8 -2.1277e-7,2.2e-7 -1.928e-8,10e-9 -1.9349e-7,2.1e-7 -3.554e-8,3e-8 -1.9348e-7,2.1e-7 -3.555e-8,4e-8 -1.9348e-7,2.1e-7 -3.555e-8,3e-8 -2.1331e-7,2.1e-7 -1.875e-8,2e-8 -1.9347e-7,2e-7 -3.555e-8,4e-8 -8.8111e-7,9.2e-7 -3.555e-8,3e-8 -6.5154e-7,7e-7 -3.554e-8,3e-8 -2.594139e-5,2.814e-5 2.6398e-7,4.1e-7 c 3.282676e-5,-9.6e-6 6.773794e-5,-1.145e-5 1.0095805e-4,-2.42e-6 4.950173e-5,1.268e-5 9.066452e-5,4.933e-5 1.3651495e-4,7.264e-5 3.900857e-5,2.082e-5 8.299754e-5,2.775e-5 1.2519797e-4,2.023e-5 5.891329e-5,-1.056e-5 1.1403107e-4,-3.958e-5 1.6538099e-4,-7.349e-5 h -4.96e-9 l 3.859e-8,-2e-8 c -2.710714e-5,9.5e-7 -5.434261e-5,-2.38e-6 -8.067338e-5,-1.028e-5 -5.105165e-5,-1.427e-5 -9.813491e-5,-4.45e-5 -1.5013258e-4,-5.463e-5 -3.614735e-5,-7.55e-6 -7.345895e-5,-3.22e-6 -1.0833234e-4,9.03e-6 3.485308e-5,-2.141e-5 7.589893e-5,-2.619e-5 1.1481604e-4,-2.06e-5 7.621397e-5,1.11e-5 1.4968161e-4,4.894e-5 2.2746565e-4,4.262e-5 l -7.17e-9,-5e-8 h 3.97e-8 c -6.80909e-6,-3.961e-5 -1.978857e-5,-7.875e-5 -4.23556e-5,-1.1007e-4 -1.989745e-5,-2.894e-5 -4.725858e-5,-5.06e-5 -7.738004e-5,-6.235e-5 -2.699687e-5,-1.085e-5 -5.561867e-5,-1.416e-5 -8.398131e-5,-1.245e-5 z" /><g
       id="g5800"
       inkscape:export-filename="shield-white-gold.svg"
       inkscape:export-xdpi="96"
       inkscape:export-ydpi="96"><path
         id="path4411"
         d="m 0.00164449,0.00240238 c -5.705e-5,7.3564e-4 -1.4345e-4,0.00162386 9.2966e-4,0.00232882 0.00107313,-7.0496e-4 9.8672e-4,-0.00159318 9.2965e-4,-0.00232882 -3.5601e-4,-4.36e-6 -6.5093e-4,-4.789e-5 -9.2965e-4,-2.9165e-4 -2.7874e-4,2.4376e-4 -5.7368e-4,2.8729e-4 -9.2966e-4,2.9165e-4 z"
         sodipodi:nodetypes="ccccc"
         style="fill:url(#linearGradient4431-7);stroke:url(#linearGradient4823);stroke-width:0.0000130588"
         inkscape:connector-curvature="0" /><path
         id="path4415"
         d="m 0.00175575,0.00252422 c -5.023e-5,6.4767e-4 -1.2628e-4,0.00142963 8.184e-4,0.00205027 9.4471e-4,-6.2064e-4 8.6863e-4,-0.0014026 8.1844e-4,-0.00205027 -3.1342e-4,-3.84e-6 -5.7307e-4,-4.214e-5 -8.1844e-4,-2.5678e-4 -2.4538e-4,2.1464e-4 -5.0499e-4,2.5294e-4 -8.184e-4,2.5678e-4 z"
         sodipodi:nodetypes="ccccc"
         style="fill:url(#linearGradient4760);stroke-width:0.00000435293"
         inkscape:connector-curvature="0" /><path
         id="path4413-3"
         style="fill:none;stroke:#797979;stroke-width:0.0000261176"
         d="m 0.00175578,0.00252422 c -5.024e-5,6.4767e-4 -1.2628e-4,0.00142963 8.1839e-4,0.00205027 9.4472e-4,-6.2064e-4 8.6863e-4,-0.0014026 8.1844e-4,-0.00205027 -3.1341e-4,-3.83e-6 -5.7306e-4,-4.215e-5 -8.1844e-4,-2.5676e-4 -2.4537e-4,2.1461e-4 -5.0498e-4,2.5293e-4 -8.1839e-4,2.5676e-4 z"
         inkscape:export-ydpi="300"
         sodipodi:nodetypes="ccccc"
         inkscape:export-filename="C:\Users\Gribba\Desktop\SVG Work\Shield_M_large.png"
         inkscape:connector-curvature="0"
         inkscape:export-xdpi="300" /><path
         id="path4413"
         style="fill:none;stroke:url(#linearGradient4705);stroke-width:0.0000217647;opacity:1"
         d="m 0.00175578,0.00252422 c -5.024e-5,6.4767e-4 -1.2628e-4,0.00142963 8.1839e-4,0.00205027 9.4472e-4,-6.2064e-4 8.6863e-4,-0.0014026 8.1844e-4,-0.00205027 -3.1341e-4,-3.83e-6 -5.7306e-4,-4.215e-5 -8.1844e-4,-2.5676e-4 -2.4537e-4,2.1461e-4 -5.0498e-4,2.5293e-4 -8.1839e-4,2.5676e-4 z"
         inkscape:export-ydpi="300"
         sodipodi:nodetypes="ccccc"
         inkscape:export-filename="C:\Users\Gribba\Desktop\SVG Work\Shield_M_large.png"
         inkscape:connector-curvature="0"
         inkscape:export-xdpi="300" /><g
         id="g5308"
         inkscape:export-ydpi="300"
         inkscape:export-filename="C:\Users\Gribba\Desktop\SVG Work\Shield_M_large.png"
         transform="matrix(4.3529338e-6,0,0,4.3529338e-6,0.0011263,0.00216549)"
         inkscape:export-xdpi="300"><circle
           id="path4217-59-6"
           style="fill:url(#radialGradient24353)"
           transform="matrix(2.5,0,0,2.5,-220.03,-359.26)"
           cx="221.06311"
           cy="147.11755"
           r="2.6973217" /><circle
           id="path4217-59-6-5"
           style="fill:url(#radialGradient24355)"
           transform="matrix(2.5,0,0,2.5,-18.454,-297.36)"
           cx="221.06311"
           cy="147.11755"
           r="2.6973217" /><circle
           id="path4217-59-6-1"
           style="fill:url(#radialGradient24357)"
           transform="matrix(2.5,0,0,2.5,-420.45,-297.36)"
           cx="221.06311"
           cy="147.11755"
           r="2.6973217" /><circle
           id="path4217-59-6-1-2"
           style="fill:url(#radialGradient24359)"
           transform="matrix(2.5,0,0,2.5,-427.82,-154.15)"
           cx="221.06311"
           cy="147.11755"
           r="2.6973217" /><circle
           id="path4217-59-6-1-4"
           style="fill:url(#radialGradient24361)"
           transform="matrix(2.5,0,0,2.5,-390.43,18.045)"
           cx="221.06311"
           cy="147.11755"
           r="2.6973217" /><circle
           id="path4217-59-6-1-9"
           style="fill:url(#radialGradient24363)"
           transform="matrix(2.5,0,0,2.5,-220.03,203.97)"
           cx="221.06311"
           cy="147.11755"
           r="2.6973217" /><circle
           id="path4217-59-6-1-0"
           style="fill:url(#radialGradient24365)"
           transform="matrix(2.5,0,0,2.5,-49.086,18.045)"
           cx="221.06311"
           cy="147.11755"
           r="2.6973217" /><circle
           id="path4217-59-6-1-92"
           style="fill:url(#radialGradient24367)"
           transform="matrix(2.5,0,0,2.5,-11.243,-153.69)"
           cx="221.06311"
           cy="147.11755"
           r="2.6973217" /></g><path
         id="path7215"
         style="opacity:0.9;fill:url(#radialGradient7264);stroke:#482e00;stroke-width:0.00000435293px"
         d="m 0.00283193,0.00406189 c -1.0609e-4,-1.949e-5 -1.9602e-4,-6.32e-5 -2.5485e-4,-1.5327e-4 -5.883e-5,9.006e-5 -1.4876e-4,1.3378e-4 -2.5485e-4,1.5327e-4 1.0091e-4,-2.0565e-4 1.6401e-4,-4.1129e-4 1.7286e-4,-6.2509e-4 -1.6415e-4,6.3e-6 -3.227e-4,6.938e-5 -4.8122e-4,1.7025e-4 1.502e-5,-1.0605e-4 4.873e-5,-1.9595e-4 1.1816e-4,-2.5475e-4 -6.943e-5,-5.881e-5 -1.0314e-4,-1.487e-4 -1.1816e-4,-2.5475e-4 1.5855e-4,1.0086e-4 3.1709e-4,1.6394e-4 4.8122e-4,1.7043e-4 -8.85e-6,-2.136e-4 -7.195e-5,-4.1924e-4 -1.7286e-4,-6.2487e-4 1.0609e-4,1.949e-5 1.9602e-4,6.32e-5 2.5485e-4,1.5326e-4 5.883e-5,-9.005e-5 1.4876e-4,-1.3377e-4 2.5485e-4,-1.5326e-4 -1.0091e-4,2.0565e-4 -1.64e-4,4.1129e-4 -1.7358e-4,6.2487e-4 1.6341e-4,-6.49e-6 3.2195e-4,-6.957e-5 4.8052e-4,-1.7043e-4 -1.503e-5,1.0605e-4 -4.873e-5,1.9594e-4 -1.1816e-4,2.5475e-4 6.943e-5,5.88e-5 1.0313e-4,1.487e-4 1.1816e-4,2.5475e-4 -1.5855e-4,-1.0087e-4 -3.1709e-4,-1.6394e-4 -4.8052e-4,-1.7025e-4 9.58e-6,2.1379e-4 7.267e-5,4.1944e-4 1.7358e-4,6.2509e-4 z"
         inkscape:export-ydpi="300"
         sodipodi:nodetypes="ccccccccccccccccc"
         inkscape:export-filename="C:\Users\Gribba\Desktop\SVG Work\Shield_M_large.png"
         inkscape:connector-curvature="0"
         inkscape:export-xdpi="300" /><ellipse
         id="path4217-59-6-1-9-8"
         style="fill:url(#radialGradient24369);stroke-width:0.0000392495"
         inkscape:export-ydpi="300"
         inkscape:export-filename="C:\Users\Gribba\Desktop\SVG Work\Shield_M_large.png"
         inkscape:export-xdpi="300"
         cx="0.002576109"
         cy="0.0033524891"
         rx="0.00010587331"
         ry="0.00010586392" /></g><path
       id="path4672"
       sodipodi:nodetypes="cccc"
       style="fill:none;stroke:#000000;stroke-width:2.51984e-06;stroke-linecap:round;stroke-linejoin:round;stroke-dashoffset:3.003"
       inkscape:connector-curvature="0"
       d="m 0.00104123,-0.00203599 1.301e-5,-7.114e-5 -4.763e-5,5.2e-6 z" /><rect
       style="fill:#ffffff;fill-opacity:1;stroke:none;stroke-width:0.00000251984;stroke-linecap:round;stroke-dasharray:none;stroke-opacity:1;paint-order:fill markers stroke"
       id="rect7876"
       width="0.00016607116"
       height="7.4749652e-05"
       x="0.00075631135"
       y="-0.0019517714"
       inkscape:export-filename="quizzendor.svg"
       inkscape:export-xdpi="96"
       inkscape:export-ydpi="96" /><path
       id="path8314"
       style="font-size:3.03209e-05px;font-family:Skia;-inkscape-font-specification:'Skia, @wght=1.76,wdth=0.89';font-variation-settings:'wdth' 0.89, 'wght' 1.76;letter-spacing:-6.01604e-07px;fill:#ffffff;stroke:#000000;stroke-width:1.30696e-06;stroke-linecap:round;paint-order:fill markers stroke"
       d="M 0.0007757026 -0.0019442805 L 0.00077218368 -0.0019435595 L 0.00076929719 -0.0019415293 L 0.00076725228 -0.0019380793 L 0.00076661739 -0.0019338689 L 0.00076737285 -0.0019294198 L 0.00076951866 -0.0019259797 L 0.00077239039 -0.0019240603 L 0.00077586994 -0.0019234205 L 0.00077894838 -0.0019239692 L 0.0007802083 -0.0019247665 L 0.00078340485 -0.0019209498 L 0.00078570076 -0.0019229308 L 0.00078238609 -0.0019266785 L 0.00078421937 -0.0019293903 L 0.00078506342 -0.0019338591 L 0.00078438178 -0.0019381507 L 0.00078228027 -0.0019416499 L 0.00077939378 -0.0019435989 L 0.00077582564 -0.0019442805 L 0.0007757026 -0.0019442805 z M 0.00077581826 -0.0019409412 L 0.00077582564 -0.0019409412 L 0.0007775285 -0.00194055 L 0.00077888932 -0.0019394992 L 0.00078023783 -0.0019368489 L 0.000780666 -0.0019336991 L 0.00078019353 -0.0019305297 L 0.00077977028 -0.0019297373 L 0.00077758756 -0.0019323802 L 0.00077561894 -0.001930291 L 0.00077799359 -0.0019274192 L 0.00077735133 -0.0019269689 L 0.00077584041 -0.0019266908 L 0.00077413755 -0.0019270796 L 0.0007729982 -0.0019278769 L 0.00077277673 -0.0019281107 L 0.00077145775 -0.001930601 L 0.00077101481 -0.0019338296 L 0.00077144299 -0.0019369105 L 0.00077271521 -0.0019394303 L 0.00077412278 -0.00194055 L 0.00077581826 -0.0019409412 z " /><g
       id="g7919"
       transform="matrix(0.64167324,0,0,0.64167324,3.766047e-4,-7.2234283e-4)"><path
         id="path7893"
         sodipodi:nodetypes="cccc"
         style="fill:none;stroke:#000000;stroke-width:2.52e-06;stroke-linecap:round;stroke-linejoin:round;stroke-dasharray:none;stroke-dashoffset:3.003"
         inkscape:connector-curvature="0"
         d="m 7.3978155e-4,-0.00200256 c -5.5386e-7,-1.57e-6 2.99993e-5,3.281e-5 2.99993e-5,3.281e-5 l -1.081388e-5,-3.114e-5 z" /><path
         id="path7895"
         sodipodi:nodetypes="ccccc"
         style="fill:none;stroke:#000000;stroke-width:2.52e-06;stroke-linecap:round;stroke-linejoin:round;stroke-dasharray:none;stroke-dashoffset:3.003"
         inkscape:connector-curvature="0"
         d="m 7.3961325e-4,-0.00200282 1.43584e-5,-1.368e-5 1.026762e-5,-7.7e-7 -6.21385e-6,1.621e-5 z" /><path
         id="path7897"
         sodipodi:nodetypes="ccccc"
         style="fill:none;stroke:#000000;stroke-width:2.52e-06;stroke-linecap:round;stroke-linejoin:round;stroke-dasharray:none;stroke-dashoffset:3.003"
         inkscape:connector-curvature="0"
         d="m 7.7754481e-4,-0.0020179 1.074111e-5,8.2e-7 1.057564e-5,1.29e-5 -1.982714e-5,3.14e-6 z" /><path
         id="path7899"
         sodipodi:nodetypes="ccccc"
         style="fill:none;stroke:#000000;stroke-width:2.52e-06;stroke-linecap:round;stroke-linejoin:round;stroke-dasharray:none;stroke-dashoffset:3.003"
         inkscape:connector-curvature="0"
         d="m 7.6392574e-4,-0.00201722 1.329121e-5,-6.9e-7 2.00312e-6,1.706e-5 -2.119501e-5,-2e-8 z" /><path
         id="path7901"
         sodipodi:nodetypes="cccc"
         style="fill:none;stroke:#000000;stroke-width:2.52e-06;stroke-linecap:round;stroke-linejoin:round;stroke-dasharray:none;stroke-dashoffset:3.003"
         inkscape:connector-curvature="0"
         d="m 7.6998926e-4,-0.00196993 2.906424e-5,-3.426e-5 -1.98275e-5,3.33e-6 z" /><path
         id="path7903"
         sodipodi:nodetypes="cc"
         style="fill:#ffffff;stroke:#000000;stroke-width:1.12447e-06;stroke-linecap:round;stroke-linejoin:round;stroke-dashoffset:3.003"
         inkscape:connector-curvature="0"
         d="m 7.6904549e-4,-0.00204186 4.8604e-7,1.799e-5" /><path
         id="path7905"
         style="fill:#ffffff;stroke:#000000;stroke-width:1.12447e-06;stroke-linecap:round;stroke-linejoin:round;stroke-dashoffset:3.003"
         inkscape:connector-curvature="0"
         d="m 7.8613529e-4,-0.00202351 7.411e-6,-1.154e-5" /><path
         id="path7907"
         sodipodi:nodetypes="cc"
         style="fill:none;stroke:#000000;stroke-width:1.12447e-06;stroke-linecap:round;stroke-linejoin:round;stroke-dashoffset:3.003"
         inkscape:connector-curvature="0"
         d="m 7.9954294e-4,-0.00200949 1.050225e-5,-6.63e-6" /><path
         id="path7909"
         sodipodi:nodetypes="cc"
         style="fill:none;stroke-width:5.62237e-07"
         inkscape:connector-curvature="0"
         d="m 7.920216e-4,-0.00198889 1.097775e-5,6.07e-6" /><path
         id="path7911"
         sodipodi:nodetypes="cc"
         style="fill:none;stroke:#000000;stroke-width:1.12447e-06;stroke-linecap:round;stroke-linejoin:round;stroke-dashoffset:3.003"
         inkscape:connector-curvature="0"
         d="m 7.230678e-4,-0.00201541 1.295644e-5,6.57e-6" /><path
         id="path7913"
         sodipodi:nodetypes="cc"
         style="fill:#ffffff;stroke:#000000;stroke-width:1.12447e-06;stroke-linecap:round;stroke-linejoin:round;stroke-dashoffset:3.003"
         inkscape:connector-curvature="0"
         d="m 7.4525058e-4,-0.00203296 5.1781e-6,1.135e-5" /><path
         id="path7915"
         d="m 7.4305717e-4,-0.00198782 -8.26105e-6,7.21e-6"
         style="fill:none;stroke:#000000;stroke-width:1.12447e-06;stroke-linecap:round"
         inkscape:connector-curvature="0" /><path
         id="path7917"
         d="m 7.9280883e-4,-0.00198625 5.61698e-6,6.23e-6"
         style="fill:none;stroke:#000000;stroke-width:1.12447e-06;stroke-linecap:round;stroke-linejoin:round;stroke-dashoffset:3.003"
         inkscape:connector-curvature="0" /></g><text
       xml:space="preserve"
       style="font-style:normal;font-variant:normal;font-weight:100;font-stretch:normal;font-size:1.37016e-05px;font-family:Skia;-inkscape-font-specification:'Skia, Thin';font-variant-ligatures:normal;font-variant-caps:normal;font-variant-numeric:normal;font-variant-east-asian:normal;letter-spacing:-2.71858e-07px;fill:#000000;fill-opacity:1;stroke:none;stroke-width:1.37007e-06;stroke-linecap:round;stroke-dasharray:none;stroke-opacity:1;paint-order:fill markers stroke"
       x="0.00076725852"
       y="-0.0019079726"
       id="text7975"><tspan
         sodipodi:role="line"
         id="tspan7973"
         style="font-style:normal;font-variant:normal;font-weight:100;font-stretch:normal;font-size:1.37016e-05px;font-family:Skia;-inkscape-font-specification:'Skia, Thin';font-variant-ligatures:normal;font-variant-caps:normal;font-variant-numeric:normal;font-variant-east-asian:normal;fill:#000000;stroke-width:1.37007e-06"
         x="0.00076725852"
         y="-0.0019079726">Sorting Quiz</tspan></text><g
       transform="matrix(-2.9270746e-6,0,0,2.9270746e-6,0.00144749,-0.00384422)"
       id="g5423"><path
         style="fill:#d40000;fill-opacity:1;stroke:#ffffff;stroke-width:0;stroke-linecap:butt;stroke-linejoin:miter;stroke-miterlimit:4;stroke-dasharray:none;stroke-opacity:1"
         d="m 190.51379,661.12665 c 0,0 -0.58547,-3.76331 0.857,-5.79247 1.44245,-2.02915 3.04443,-1.98199 4.33481,-2.01019 1.29039,-0.0282 3.0768,-0.0835 3.22203,0.063 0.14523,0.14646 -0.12782,0.51108 -0.12782,0.51108 0,0 -1.27107,-0.29486 -1.97871,0.4247 -0.70765,0.71955 -1.89568,2.01826 -0.47893,3.94281 1.41676,1.92457 1.41676,1.92457 1.41676,1.92457 l -1.99408,3.528 z"
         id="path5425"
         inkscape:connector-curvature="0" /><path
         style="fill:#008033;fill-opacity:1;stroke:#ffffff;stroke-width:0;stroke-linecap:butt;stroke-linejoin:miter;stroke-miterlimit:4;stroke-dasharray:none;stroke-opacity:1"
         d="m 191.17439,666.7505 c 0,0 -1.82102,-3.43196 -3.58642,-2.50818 -1.7654,0.92376 -1.79347,4.37482 -1.79347,4.37482 l -0.41589,-0.0209 c 0,0 -0.74141,-4.887 0.014,-6.81134 0.75538,-1.92436 2.34128,-3.9125 6.64185,-1.0131 4.30059,2.89941 4.66509,4.25854 4.66509,4.25854 z"
         id="path5427"
         inkscape:connector-curvature="0" /><path
         inkscape:connector-curvature="0"
         id="path5429"
         d="m 199.36647,664.55348 c 0,0 0.31618,-3.66077 2.3069,-3.74434 1.99073,-0.0836 3.55149,2.27916 3.55149,2.27916 l 0.39062,-0.36965 c 0,0 -0.32146,-2.89879 -1.87221,-4.26586 -3.01805,-2.66062 -5.62915,0.10567 -7.52729,1.8598 -1.41057,1.30352 -1.81828,5.46751 -1.81828,5.46751 z"
         style="fill:#2c5aa0;fill-opacity:1;stroke:#ffffff;stroke-width:0;stroke-linecap:butt;stroke-linejoin:miter;stroke-miterlimit:4;stroke-dasharray:none;stroke-opacity:1"
         sodipodi:nodetypes="csccsacc" /><path
         style="fill:#d4aa00;fill-opacity:1;stroke:#ffffff;stroke-width:0;stroke-linecap:butt;stroke-linejoin:miter;stroke-miterlimit:4;stroke-dasharray:none;stroke-opacity:1"
         d="m 191.41767,667.77917 c -0.14671,-0.4074 -0.60762,-1.14816 -0.60762,-1.14816 0,0 2.48742,-1.20788 3.81781,-1.54835 1.52353,-0.38987 4.68627,-0.54504 4.68627,-0.54504 0,0 0.0181,1.06193 0.0885,1.58708 0.0625,0.46682 0.29567,1.38168 0.29567,1.38168 0,0 -2.8011,0.11251 -4.14331,0.47435 -1.31932,0.35509 -3.75474,1.64381 -3.75474,1.64381 -0.0181,-0.62561 -0.16974,-1.25431 -0.38258,-1.84536 z"
         id="path5431"
         inkscape:connector-curvature="0"
         sodipodi:nodetypes="acacacaca" /><circle
         style="color:#000000;display:inline;overflow:visible;visibility:visible;fill:#d4aa00;fill-opacity:1;fill-rule:nonzero;stroke:#ffffff;stroke-width:0;stroke-linecap:butt;stroke-linejoin:miter;stroke-miterlimit:4;stroke-dasharray:none;stroke-dashoffset:0;stroke-opacity:1;marker:none;enable-background:accumulate"
         id="path5433"
         transform="matrix(0.03917125,-0.01050524,0.01050524,0.03917125,216.82451,630.37637)"
         cx="-559.38605"
         cy="446.58365"
         r="30.333534" /><circle
         transform="matrix(0.03917125,-0.01050524,0.01050524,0.03917125,222.85644,640.29657)"
         id="path5435"
         style="color:#000000;display:inline;overflow:visible;visibility:visible;fill:#d4aa00;fill-opacity:1;fill-rule:nonzero;stroke:#ffffff;stroke-width:0;stroke-linecap:butt;stroke-linejoin:miter;stroke-miterlimit:4;stroke-dasharray:none;stroke-dashoffset:0;stroke-opacity:1;marker:none;enable-background:accumulate"
         cx="-559.38605"
         cy="446.58365"
         r="30.333534" /><circle
         style="color:#000000;display:inline;overflow:visible;visibility:visible;fill:#d4aa00;fill-opacity:1;fill-rule:nonzero;stroke:#ffffff;stroke-width:0;stroke-linecap:butt;stroke-linejoin:miter;stroke-miterlimit:4;stroke-dasharray:none;stroke-dashoffset:0;stroke-opacity:1;marker:none;enable-background:accumulate"
         id="path5437"
         transform="matrix(0.03917125,-0.01050524,0.01050524,0.03917125,202.6945,645.85359)"
         cx="-559.38605"
         cy="446.58365"
         r="30.333534" /></g><path
       d="m 8.002889e-4,-0.00192395 h -3.86413e-6 v -1.38e-6 l -2.961e-8,-2e-8 q -9.6234e-7,6.1e-7 -2.36882e-6,1.2e-6 -1.40649e-6,6e-7 -2.72415e-6,6e-7 -1.92466e-6,0 -2.99063e-6,-1.2e-6 -1.06597e-6,-1.22e-6 -1.06597e-6,-3.32e-6 0,-1.41e-6 1.48e-8,-2.87e-6 1.481e-8,-1.48e-6 1.481e-8,-2.25e-6 0,-1.26e-6 -2.961e-8,-3.32e-6 -1.481e-8,-2.07e-6 -1.481e-8,-2.53e-6 h 3.96778e-6 q 0,3.5e-7 -1.481e-8,2.16e-6 -1.48e-8,1.79e-6 -1.48e-8,2.98e-6 0,1.11e-6 0,2.47e-6 1.48e-8,1.35e-6 1.48e-8,1.94e-6 1.481e-8,1.43e-6 3.8493e-7,2.1e-6 3.7013e-7,6.7e-7 1.31766e-6,6.7e-7 8.2909e-7,0 1.88025e-6,-4.8e-7 1.05117e-6,-4.7e-7 1.56935e-6,-8.7e-7 0,-1.6e-7 0,-1.64e-6 1.48e-8,-1.5e-6 1.48e-8,-3.19e-6 0,-1.57e-6 -2.961e-8,-3.64e-6 -1.48e-8,-2.09e-6 -1.48e-8,-2.5e-6 h 3.98257e-6 q 0,4.6e-7 -2.961e-8,2.38e-6 -1.48e-8,1.91e-6 -1.48e-8,4.53e-6 0,2.05e-6 1.48e-8,3.7e-6 1.481e-8,1.66e-6 2.961e-8,4.48e-6 z"
       id="path8316"
       style="font-size:3.03209e-05px;font-family:Skia;-inkscape-font-specification:'Skia, @wght=1.76,wdth=0.89';font-variation-settings:'wdth' 0.89, 'wght' 1.76;letter-spacing:-6.01604e-07px;fill:#ffffff;stroke:#000000;stroke-width:1.30696e-06;stroke-linecap:round;paint-order:fill markers stroke" /><path
       d="m 8.0737116e-4,-0.00194157 h -4.18985e-6 v -3.23e-6 h 4.18985e-6 z m -8.883e-8,1.762e-5 h -4.01219e-6 q 1.481e-8,-6.4e-7 2.961e-8,-2.82e-6 1.481e-8,-2.17e-6 1.481e-8,-4.6e-6 0,-1.72e-6 -1.481e-8,-3.6e-6 0,-1.88e-6 -2.961e-8,-4.07e-6 h 4.01219e-6 q -1.481e-8,2.06e-6 -2.961e-8,3.76e-6 -1.481e-8,1.69e-6 -1.481e-8,3.75e-6 0,3.34e-6 1.481e-8,5.15e-6 2.961e-8,1.8e-6 2.961e-8,2.43e-6 z"
       id="path8318"
       style="font-size:3.03209e-05px;font-family:Skia;-inkscape-font-specification:'Skia, @wght=1.76,wdth=0.89';font-variation-settings:'wdth' 0.89, 'wght' 1.76;letter-spacing:-6.01604e-07px;fill:#ffffff;stroke:#000000;stroke-width:1.30696e-06;stroke-linecap:round;paint-order:fill markers stroke" /><path
       d="m 8.2121936e-4,-0.001924 q -7.2545e-7,0 -2.79817e-6,0 -2.05791e-6,-1e-8 -3.28673e-6,-1e-8 -1.45091e-6,0 -3.18311e-6,1e-8 -1.71739e-6,0 -2.13193e-6,0 l -9.4753e-7,-1.88e-6 q 1.02155e-6,-1.43e-6 2.87219e-6,-4.25e-6 1.85064e-6,-2.83e-6 3.89375e-6,-5.89e-6 l -1.481e-8,-3e-8 q -4.5895e-7,0 -1.13999e-6,0 -6.8104e-7,0 -1.18441e-6,0 -9.0311e-7,0 -2.29479e-6,2e-8 -1.39169e-6,0 -1.70259e-6,0 v -2.92e-6 q 4.4415e-7,0 2.25037e-6,10e-9 1.80623e-6,0 3.04986e-6,0 1.27324e-6,0 3.06466e-6,0 1.79142e-6,-10e-9 2.32441e-6,-10e-9 l 1.02155e-6,1.76e-6 q -2.07272e-6,2.98e-6 -4.20465e-6,6.16e-6 -2.11714e-6,3.18e-6 -2.66493e-6,4.07e-6 l 1.481e-8,3e-8 q 5.3298e-7,0 1.22882e-6,0 6.9584e-7,0 1.48052e-6,0 1.86544e-6,0 2.93141e-6,0 1.06597e-6,-10e-9 1.42129e-6,-10e-9 z"
       id="path8320"
       style="font-size:3.03209e-05px;font-family:Skia;-inkscape-font-specification:'Skia, @wght=1.76,wdth=0.89';font-variation-settings:'wdth' 0.89, 'wght' 1.76;letter-spacing:-6.01604e-07px;fill:#ffffff;stroke:#000000;stroke-width:1.30696e-06;stroke-linecap:round;paint-order:fill markers stroke" /><path
       d="m 8.3364627e-4,-0.001924 q -7.2545e-7,0 -2.79817e-6,0 -2.05791e-6,-1e-8 -3.28674e-6,-1e-8 -1.4509e-6,0 -3.1831e-6,1e-8 -1.71739e-6,0 -2.13194e-6,0 l -9.4753e-7,-1.88e-6 q 1.02156e-6,-1.43e-6 2.8722e-6,-4.25e-6 1.85064e-6,-2.83e-6 3.89375e-6,-5.89e-6 l -1.481e-8,-3e-8 q -4.5896e-7,0 -1.13999e-6,0 -6.8104e-7,0 -1.18441e-6,0 -9.0312e-7,0 -2.2948e-6,2e-8 -1.39168e-6,0 -1.70259e-6,0 v -2.92e-6 q 4.4416e-7,0 2.25038e-6,10e-9 1.80623e-6,0 3.04986e-6,0 1.27324e-6,0 3.06466e-6,0 1.79142e-6,-10e-9 2.3244e-6,-10e-9 l 1.02156e-6,1.76e-6 q -2.07272e-6,2.98e-6 -4.20466e-6,6.16e-6 -2.11713e-6,3.18e-6 -2.66492e-6,4.07e-6 l 1.48e-8,3e-8 q 5.3299e-7,0 1.22883e-6,0 6.9584e-7,0 1.48051e-6,0 1.86545e-6,0 2.93142e-6,0 1.06597e-6,-10e-9 1.42129e-6,-10e-9 z"
       id="path8322"
       style="font-size:3.03209e-05px;font-family:Skia;-inkscape-font-specification:'Skia, @wght=1.76,wdth=0.89';font-variation-settings:'wdth' 0.89, 'wght' 1.76;letter-spacing:-6.01604e-07px;fill:#ffffff;stroke:#000000;stroke-width:1.30696e-06;stroke-linecap:round;paint-order:fill markers stroke" /><path
       d="m 8.4715395e-4,-0.00193162 h -9.13476e-6 q 0,1.27e-6 5.3298e-7,2.28e-6 5.3299e-7,1e-6 1.64337e-6,1.64e-6 8.1428e-7,4.9e-7 1.76181e-6,7.1e-7 9.4753e-7,2.1e-7 2.11713e-6,2.1e-7 8.2909e-7,0 1.39169e-6,-3e-8 5.774e-7,-3e-8 8.5869e-7,-5e-8 l -3.9974e-7,2.94e-6 q -2.961e-7,3e-8 -8.735e-7,5e-8 -5.774e-7,3e-8 -1.4509e-6,3e-8 -2.33921e-6,0 -4.14544e-6,-5.7e-7 -1.80622e-6,-5.8e-7 -3.06466e-6,-1.72e-6 -1.06597e-6,-1.01e-6 -1.70259e-6,-2.44e-6 -6.3662e-7,-1.45e-6 -6.3662e-7,-3.11e-6 0,-1.73e-6 4.5896e-7,-3.07e-6 4.5896e-7,-1.34e-6 1.53973e-6,-2.56e-6 9.0312e-7,-1.03e-6 2.19116e-6,-1.57e-6 1.28805e-6,-5.5e-7 2.66493e-6,-5.5e-7 1.42129e-6,0 2.53167e-6,4.5e-7 1.12519e-6,4.4e-7 1.92467e-6,1.33e-6 9.4753e-7,1.05e-6 1.36207e-6,2.53e-6 4.1454e-7,1.47e-6 4.2935e-7,3.5e-6 z m -3.70128e-6,-1.9e-6 q -1.4805e-7,-1.6e-6 -8.2909e-7,-2.47e-6 -6.8103e-7,-8.9e-7 -1.86545e-6,-8.9e-7 -1.1696e-6,0 -1.92466e-6,8.7e-7 -7.4026e-7,8.6e-7 -9.9195e-7,2.49e-6 z"
       id="path8324"
       style="font-size:3.03209e-05px;font-family:Skia;-inkscape-font-specification:'Skia, @wght=1.76,wdth=0.89';font-variation-settings:'wdth' 0.89, 'wght' 1.76;letter-spacing:-6.01604e-07px;fill:#ffffff;stroke:#000000;stroke-width:1.30696e-06;stroke-linecap:round;paint-order:fill markers stroke" /><path
       d="m 8.6193487e-4,-0.00192395 h -3.96777e-6 q 0,-4.8e-7 1.48e-8,-2.34e-6 2.961e-8,-1.88e-6 2.961e-8,-2.98e-6 0,-9.3e-7 -1.48e-8,-2.29e-6 0,-1.37e-6 -1.481e-8,-1.99e-6 -1.48e-8,-1.46e-6 -4.1454e-7,-2.07e-6 -3.8494e-7,-6.1e-7 -1.40649e-6,-6.1e-7 -6.6623e-7,0 -1.58415e-6,3.9e-7 -9.1792e-7,3.8e-7 -1.747e-6,9e-7 0,1.2e-7 -1.481e-8,1.76e-6 0,1.65e-6 0,2.8e-6 0,1.64e-6 1.481e-8,3.91e-6 2.961e-8,2.26e-6 2.961e-8,2.52e-6 h -3.98258e-6 q 0,-4e-7 1.48e-8,-2.3e-6 2.961e-8,-1.91e-6 2.961e-8,-5.03e-6 0,-1.96e-6 -1.48e-8,-3.84e-6 0,-1.88e-6 -2.961e-8,-3.92e-6 h 3.89375e-6 l -1.481e-8,1.35e-6 2.961e-8,3e-8 q 1.31766e-6,-7.9e-7 2.69454e-6,-1.28e-6 1.39168e-6,-4.9e-7 2.47245e-6,-4.9e-7 1.85064e-6,0 2.90181e-6,1.2e-6 1.06597e-6,1.2e-6 1.06597e-6,3.2e-6 0,1.72e-6 -1.481e-8,2.93e-6 -1.48e-8,1.2e-6 -1.48e-8,2.02e-6 0,1.27e-6 1.48e-8,3.46e-6 2.961e-8,2.18e-6 2.961e-8,2.67e-6 z"
       id="path8326"
       style="font-size:3.03209e-05px;font-family:Skia;-inkscape-font-specification:'Skia, @wght=1.76,wdth=0.89';font-variation-settings:'wdth' 0.89, 'wght' 1.76;letter-spacing:-6.01604e-07px;fill:#ffffff;stroke:#000000;stroke-width:1.30696e-06;stroke-linecap:round;paint-order:fill markers stroke" /><path
       d="m 8.7692307e-4,-0.00192381 q -3.1091e-7,0 -8.7351e-7,0 -5.4779e-7,2e-8 -1.12519e-6,2e-8 -2.84258e-6,0 -4.57478e-6,-3.4e-7 -1.7322e-6,-3.4e-7 -3.02025e-6,-1.05e-6 -1.79142e-6,-1.01e-6 -2.72414e-6,-2.56e-6 -9.1792e-7,-1.56e-6 -9.1792e-7,-3.56e-6 0,-2.16e-6 1.05117e-6,-3.82e-6 1.05116e-6,-1.67e-6 3.06466e-6,-2.66e-6 1.08077e-6,-5.5e-7 2.42804e-6,-8.5e-7 1.36207e-6,-3.1e-7 2.72414e-6,-3.5e-7 l -2.961e-8,-6.68e-6 h 3.99739e-6 q 0,4.9e-7 -1.481e-8,4.12e-6 -1.48e-8,3.61e-6 -1.48e-8,7.37e-6 0,3.15e-6 1.48e-8,6.09e-6 1.481e-8,2.91e-6 1.481e-8,4.27e-6 z m -3.81973e-6,-9.4e-6 q 0,-6e-7 0,-1.4e-6 0,-8.2e-7 0,-1.37e-6 -9.7713e-7,0 -1.83583e-6,2.1e-7 -8.587e-7,2.1e-7 -1.53974e-6,6.4e-7 -9.7713e-7,5.8e-7 -1.53973e-6,1.58e-6 -5.4779e-7,1.01e-6 -5.4779e-7,2.37e-6 0,1.27e-6 4.8857e-7,2.18e-6 4.8857e-7,9e-7 1.33246e-6,1.51e-6 6.8104e-7,4.4e-7 1.55454e-6,6.8e-7 8.735e-7,2.2e-7 1.80623e-6,2.2e-7 5.922e-8,2e-8 1.1844e-7,2e-8 7.402e-8,0 1.4805e-7,0 0,-1.5e-7 0,-2e-6 1.48e-8,-1.87e-6 1.48e-8,-4.64e-6 z"
       id="path8328"
       style="font-size:3.03209e-05px;font-family:Skia;-inkscape-font-specification:'Skia, @wght=1.76,wdth=0.89';font-variation-settings:'wdth' 0.89, 'wght' 1.76;letter-spacing:-6.01604e-07px;fill:#ffffff;stroke:#000000;stroke-width:1.30696e-06;stroke-linecap:round;paint-order:fill markers stroke" /><path
       d="m 8.9314008e-4,-0.0019315 q 0,1.71e-6 -5.6259e-7,3.28e-6 -5.4779e-7,1.56e-6 -1.70259e-6,2.73e-6 -9.6233e-7,9.4e-7 -2.19116e-6,1.43e-6 -1.22883e-6,4.9e-7 -2.69453e-6,4.9e-7 -1.42129e-6,0 -2.69454e-6,-4.9e-7 -1.27324e-6,-5e-7 -2.20596e-6,-1.42e-6 -1.11038e-6,-1.14e-6 -1.68778e-6,-2.71e-6 -5.774e-7,-1.57e-6 -5.774e-7,-3.31e-6 0,-1.8e-6 5.0337e-7,-3.2e-6 5.0337e-7,-1.41e-6 1.58415e-6,-2.59e-6 9.6233e-7,-1.05e-6 2.26518e-6,-1.59e-6 1.31766e-6,-5.5e-7 2.79817e-6,-5.5e-7 1.51013e-6,0 2.76856e-6,5.1e-7 1.25844e-6,5e-7 2.25038e-6,1.55e-6 1.08077e-6,1.14e-6 1.61376e-6,2.61e-6 5.3298e-7,1.46e-6 5.3298e-7,3.26e-6 z m -3.95297e-6,7e-8 q 0,-1.16e-6 -2.961e-7,-2.25e-6 -2.813e-7,-1.1e-6 -9.0311e-7,-1.81e-6 -3.7013e-7,-4.4e-7 -8.8831e-7,-6.8e-7 -5.1818e-7,-2.5e-7 -1.11038e-6,-2.5e-7 -6.8104e-7,0 -1.18441e-6,2.5e-7 -4.8857e-7,2.5e-7 -9.1792e-7,7.9e-7 -5.3299e-7,6e-7 -8.2909e-7,1.67e-6 -2.813e-7,1.05e-6 -2.813e-7,2.21e-6 0,1.22e-6 2.813e-7,2.26e-6 2.961e-7,1.02e-6 9.3273e-7,1.75e-6 3.8493e-7,4.4e-7 8.883e-7,6.9e-7 5.1818e-7,2.4e-7 1.09558e-6,2.4e-7 6.3662e-7,0 1.16961e-6,-2.7e-7 5.3298e-7,-2.8e-7 9.1791e-7,-7.7e-7 5.4779e-7,-6.6e-7 8.2909e-7,-1.67e-6 2.961e-7,-1.02e-6 2.961e-7,-2.16e-6 z"
       id="path8330"
       style="font-size:3.03209e-05px;font-family:Skia;-inkscape-font-specification:'Skia, @wght=1.76,wdth=0.89';font-variation-settings:'wdth' 0.89, 'wght' 1.76;letter-spacing:-6.01604e-07px;fill:#ffffff;stroke:#000000;stroke-width:1.30696e-06;stroke-linecap:round;paint-order:fill markers stroke" /><path
       d="m 9.0512284e-4,-0.00193603 q -1.08078e-6,3.5e-7 -2.48727e-6,9.1e-7 -1.39168e-6,5.5e-7 -3.62725e-6,1.66e-6 0,3.9e-7 -1.481e-8,1.39e-6 0,9.9e-7 0,2.12e-6 0,1.6e-6 1.481e-8,3.6e-6 2.961e-8,1.98e-6 2.961e-8,2.4e-6 h -4.01219e-6 q 0,-5.1e-7 1.48e-8,-2.42e-6 2.961e-8,-1.92e-6 2.961e-8,-4.76e-6 0,-1.59e-6 -1.48e-8,-3.62e-6 -1.481e-8,-2.03e-6 -2.961e-8,-4.29e-6 h 3.93816e-6 l -2.961e-8,2.22e-6 4.442e-8,3e-8 q 1.4509e-6,-1.01e-6 2.9018e-6,-1.73e-6 1.45091e-6,-7.3e-7 2.20597e-6,-9.8e-7 z"
       id="path8332"
       style="font-size:3.03209e-05px;font-family:Skia;-inkscape-font-specification:'Skia, @wght=1.76,wdth=0.89';font-variation-settings:'wdth' 0.89, 'wght' 1.76;letter-spacing:-6.01604e-07px;fill:#ffffff;stroke:#000000;stroke-width:1.30696e-06;stroke-linecap:round;paint-order:fill markers stroke" /><text
       xml:space="preserve"
       style="font-style:normal;font-variant:normal;font-weight:normal;font-stretch:normal;font-size:3.03209e-05px;font-family:Skia;-inkscape-font-specification:'Skia, @wght=1.76,wdth=0.89';font-variant-ligatures:normal;font-variant-caps:normal;font-variant-numeric:normal;font-variant-east-asian:normal;font-variation-settings:'wdth' 0.89, 'wght' 1.76;letter-spacing:-6.01604e-07px;fill:#ffffff;fill-opacity:1;stroke:#000000;stroke-width:1.30696e-06;stroke-linecap:round;stroke-dasharray:none;stroke-opacity:1;paint-order:fill markers stroke"
       x="0.00076553586"
       y="-0.0019558587"
       id="text8312"><tspan
         sodipodi:role="line"
         id="tspan8310"
         style="font-style:normal;font-variant:normal;font-weight:normal;font-stretch:normal;font-size:3.03209e-05px;font-family:Skia;-inkscape-font-specification:'Skia, @wght=1.76,wdth=0.89';font-variant-ligatures:normal;font-variant-caps:normal;font-variant-numeric:normal;font-variant-east-asian:normal;font-variation-settings:'wdth' 0.89, 'wght' 1.76;fill:#ffffff;stroke:#000000;stroke-width:1.30696e-06;stroke-dasharray:none"
         x="0.00076553586"
         y="-0.0019558587">Quizzendor</tspan></text></g></svg>
