<?xml version="1.0" encoding="UTF-8" standalone="no"?>
<!-- Created with Inkscape (http://www.inkscape.org/) -->

<svg
   width="34.874958mm"
   height="15.697416mm"
   viewBox="0 0 0.00016607123 5.2853254e-05"
   version="1.1"
   id="svg5"
   xml:space="preserve"
   inkscape:version="1.2 (dc2aeda, 2022-05-15)"
   sodipodi:docname="quiz.svg"
   xmlns:inkscape="http://www.inkscape.org/namespaces/inkscape"
   xmlns:sodipodi="http://sodipodi.sourceforge.net/DTD/sodipodi-0.dtd"
   xmlns="http://www.w3.org/2000/svg"
   xmlns:svg="http://www.w3.org/2000/svg"><sodipodi:namedview
     id="namedview7"
     pagecolor="#d1d1d1"
     bordercolor="#000000"
     borderopacity="0.24705882"
     inkscape:showpageshadow="false"
     inkscape:pageopacity="0"
     inkscape:pagecheckerboard="false"
     inkscape:deskcolor="#d1d1d1"
     inkscape:document-units="px"
     showgrid="false"
     showborder="false"
     borderlayer="false"
     shape-rendering="crispEdges"
     inkscape:zoom="1.9357906"
     inkscape:cx="786.24208"
     inkscape:cy="-1378.2483"
     inkscape:window-width="1309"
     inkscape:window-height="740"
     inkscape:window-x="1570"
     inkscape:window-y="255"
     inkscape:window-maximized="0"
     inkscape:current-layer="layer1" /><defs
     id="defs2"><linearGradient
       id="linearGradient14035"
       inkscape:swatch="solid"><stop
         style="stop-color:#a05a2c;stop-opacity:1;"
         offset="0"
         id="stop14033" /></linearGradient></defs><g
     inkscape:label="Layer 1"
     inkscape:groupmode="layer"
     id="layer1"
     transform="translate(-7.5631135e-4,0.00174463)"><rect
       style="fill:#ffffff;fill-opacity:1;stroke:none;stroke-width:2.51984e-06;stroke-linecap:round;stroke-dasharray:none;stroke-opacity:1;paint-order:fill markers stroke"
       id="rect7876"
       width="0.00016607116"
       height="7.4749652e-05"
       x="0.00075631135"
       y="-0.0019517714" /><path
       id="path8314"
       style="font-size:3.03209e-05px;font-family:Skia;-inkscape-font-specification:'Skia, @wght=1.76,wdth=0.89';font-variation-settings:'wdth' 0.89, 'wght' 1.76;letter-spacing:-6.01604e-07px;fill:#ffffff;stroke:#000000;stroke-width:1.30696e-06;stroke-linecap:round;paint-order:fill markers stroke"
       d="m 7.757026e-4,-0.00194428 -3.51892e-6,7.2e-7 -2.88649e-6,2.03e-6 -2.04491e-6,3.45e-6 -6.3489e-7,4.21e-6 7.5546e-7,4.45e-6 2.14581e-6,3.44e-6 2.87173e-6,1.92e-6 3.47955e-6,6.4e-7 3.07844e-6,-5.5e-7 1.25992e-6,-8e-7 3.19655e-6,3.82e-6 2.29591e-6,-1.98e-6 -3.31467e-6,-3.75e-6 1.83328e-6,-2.71e-6 8.4405e-7,-4.47e-6 -6.8164e-7,-4.29e-6 -2.10151e-6,-3.5e-6 -2.88649e-6,-1.95e-6 z m 1.1566e-7,3.34e-6 h 7.38e-9 l 1.70286e-6,3.9e-7 1.36082e-6,1.05e-6 1.34851e-6,2.65e-6 4.2817e-7,3.15e-6 -4.7247e-7,3.17e-6 -4.2325e-7,7.9e-7 -2.18272e-6,-2.64e-6 -1.96862e-6,2.09e-6 2.37465e-6,2.87e-6 -6.4226e-7,4.5e-7 -1.51092e-6,2.8e-7 -1.70286e-6,-3.9e-7 -1.13935e-6,-8e-7 -2.2147e-7,-2.3e-7 -1.31898e-6,-2.49e-6 -4.4294e-7,-3.23e-6 4.2818e-7,-3.08e-6 1.27222e-6,-2.52e-6 1.40757e-6,-1.12e-6 z" /><text
       xml:space="preserve"
       style="font-style:normal;font-variant:normal;font-weight:100;font-stretch:normal;font-size:1.37016e-05px;font-family:Skia;-inkscape-font-specification:'Skia, Thin';font-variant-ligatures:normal;font-variant-caps:normal;font-variant-numeric:normal;font-variant-east-asian:normal;letter-spacing:-2.71858e-07px;fill:#000000;fill-opacity:1;stroke:none;stroke-width:1.37007e-06;stroke-linecap:round;stroke-dasharray:none;stroke-opacity:1;paint-order:fill markers stroke"
       x="0.00076725852"
       y="-0.0019079726"
       id="text7975"><tspan
         sodipodi:role="line"
         id="tspan7973"
         style="font-style:normal;font-variant:normal;font-weight:100;font-stretch:normal;font-size:1.37016e-05px;font-family:Skia;-inkscape-font-specification:'Skia, Thin';font-variant-ligatures:normal;font-variant-caps:normal;font-variant-numeric:normal;font-variant-east-asian:normal;fill:#000000;stroke-width:1.37007e-06"
         x="0.00076725852"
         y="-0.0019079726">Sorting Quiz</tspan></text><g
       transform="matrix(-2.9270746e-6,0,0,2.9270746e-6,0.00144749,-0.00384422)"
       id="g5423"><path
         style="fill:#d40000;fill-opacity:1;stroke:#ffffff;stroke-width:0;stroke-linecap:butt;stroke-linejoin:miter;stroke-miterlimit:4;stroke-dasharray:none;stroke-opacity:1"
         d="m 190.51379,661.12665 c 0,0 -0.58547,-3.76331 0.857,-5.79247 1.44245,-2.02915 3.04443,-1.98199 4.33481,-2.01019 1.29039,-0.0282 3.0768,-0.0835 3.22203,0.063 0.14523,0.14646 -0.12782,0.51108 -0.12782,0.51108 0,0 -1.27107,-0.29486 -1.97871,0.4247 -0.70765,0.71955 -1.89568,2.01826 -0.47893,3.94281 1.41676,1.92457 1.41676,1.92457 1.41676,1.92457 l -1.99408,3.528 z"
         id="path5425"
         inkscape:connector-curvature="0" /><path
         style="fill:#008033;fill-opacity:1;stroke:#ffffff;stroke-width:0;stroke-linecap:butt;stroke-linejoin:miter;stroke-miterlimit:4;stroke-dasharray:none;stroke-opacity:1"
         d="m 191.17439,666.7505 c 0,0 -1.82102,-3.43196 -3.58642,-2.50818 -1.7654,0.92376 -1.79347,4.37482 -1.79347,4.37482 l -0.41589,-0.0209 c 0,0 -0.74141,-4.887 0.014,-6.81134 0.75538,-1.92436 2.34128,-3.9125 6.64185,-1.0131 4.30059,2.89941 4.66509,4.25854 4.66509,4.25854 z"
         id="path5427"
         inkscape:connector-curvature="0" /><path
         inkscape:connector-curvature="0"
         id="path5429"
         d="m 199.36647,664.55348 c 0,0 0.31618,-3.66077 2.3069,-3.74434 1.99073,-0.0836 3.55149,2.27916 3.55149,2.27916 l 0.39062,-0.36965 c 0,0 -0.32146,-2.89879 -1.87221,-4.26586 -3.01805,-2.66062 -5.62915,0.10567 -7.52729,1.8598 -1.41057,1.30352 -1.81828,5.46751 -1.81828,5.46751 z"
         style="fill:#2c5aa0;fill-opacity:1;stroke:#ffffff;stroke-width:0;stroke-linecap:butt;stroke-linejoin:miter;stroke-miterlimit:4;stroke-dasharray:none;stroke-opacity:1"
         sodipodi:nodetypes="csccsacc" /><path
         style="fill:#d4aa00;fill-opacity:1;stroke:#ffffff;stroke-width:0;stroke-linecap:butt;stroke-linejoin:miter;stroke-miterlimit:4;stroke-dasharray:none;stroke-opacity:1"
         d="m 191.41767,667.77917 c -0.14671,-0.4074 -0.60762,-1.14816 -0.60762,-1.14816 0,0 2.48742,-1.20788 3.81781,-1.54835 1.52353,-0.38987 4.68627,-0.54504 4.68627,-0.54504 0,0 0.0181,1.06193 0.0885,1.58708 0.0625,0.46682 0.29567,1.38168 0.29567,1.38168 0,0 -2.8011,0.11251 -4.14331,0.47435 -1.31932,0.35509 -3.75474,1.64381 -3.75474,1.64381 -0.0181,-0.62561 -0.16974,-1.25431 -0.38258,-1.84536 z"
         id="path5431"
         inkscape:connector-curvature="0"
         sodipodi:nodetypes="acacacaca" /><circle
         style="color:#000000;display:inline;overflow:visible;visibility:visible;fill:#d4aa00;fill-opacity:1;fill-rule:nonzero;stroke:#ffffff;stroke-width:0;stroke-linecap:butt;stroke-linejoin:miter;stroke-miterlimit:4;stroke-dasharray:none;stroke-dashoffset:0;stroke-opacity:1;marker:none;enable-background:accumulate"
         id="path5433"
         transform="matrix(0.03917125,-0.01050524,0.01050524,0.03917125,216.82451,630.37637)"
         cx="-559.38605"
         cy="446.58365"
         r="30.333534" /><circle
         transform="matrix(0.03917125,-0.01050524,0.01050524,0.03917125,222.85644,640.29657)"
         id="path5435"
         style="color:#000000;display:inline;overflow:visible;visibility:visible;fill:#d4aa00;fill-opacity:1;fill-rule:nonzero;stroke:#ffffff;stroke-width:0;stroke-linecap:butt;stroke-linejoin:miter;stroke-miterlimit:4;stroke-dasharray:none;stroke-dashoffset:0;stroke-opacity:1;marker:none;enable-background:accumulate"
         cx="-559.38605"
         cy="446.58365"
         r="30.333534" /><circle
         style="color:#000000;display:inline;overflow:visible;visibility:visible;fill:#d4aa00;fill-opacity:1;fill-rule:nonzero;stroke:#ffffff;stroke-width:0;stroke-linecap:butt;stroke-linejoin:miter;stroke-miterlimit:4;stroke-dasharray:none;stroke-dashoffset:0;stroke-opacity:1;marker:none;enable-background:accumulate"
         id="path5437"
         transform="matrix(0.03917125,-0.01050524,0.01050524,0.03917125,202.6945,645.85359)"
         cx="-559.38605"
         cy="446.58365"
         r="30.333534" /></g><path
       d="m 8.002889e-4,-0.00192395 h -3.86413e-6 v -1.38e-6 l -2.961e-8,-2e-8 q -9.6234e-7,6.1e-7 -2.36882e-6,1.2e-6 -1.40649e-6,6e-7 -2.72415e-6,6e-7 -1.92466e-6,0 -2.99063e-6,-1.2e-6 -1.06597e-6,-1.22e-6 -1.06597e-6,-3.32e-6 0,-1.41e-6 1.48e-8,-2.87e-6 1.481e-8,-1.48e-6 1.481e-8,-2.25e-6 0,-1.26e-6 -2.961e-8,-3.32e-6 -1.481e-8,-2.07e-6 -1.481e-8,-2.53e-6 h 3.96778e-6 q 0,3.5e-7 -1.481e-8,2.16e-6 -1.48e-8,1.79e-6 -1.48e-8,2.98e-6 0,1.11e-6 0,2.47e-6 1.48e-8,1.35e-6 1.48e-8,1.94e-6 1.481e-8,1.43e-6 3.8493e-7,2.1e-6 3.7013e-7,6.7e-7 1.31766e-6,6.7e-7 8.2909e-7,0 1.88025e-6,-4.8e-7 1.05117e-6,-4.7e-7 1.56935e-6,-8.7e-7 0,-1.6e-7 0,-1.64e-6 1.48e-8,-1.5e-6 1.48e-8,-3.19e-6 0,-1.57e-6 -2.961e-8,-3.64e-6 -1.48e-8,-2.09e-6 -1.48e-8,-2.5e-6 h 3.98257e-6 q 0,4.6e-7 -2.961e-8,2.38e-6 -1.48e-8,1.91e-6 -1.48e-8,4.53e-6 0,2.05e-6 1.48e-8,3.7e-6 1.481e-8,1.66e-6 2.961e-8,4.48e-6 z"
       id="path8316"
       style="font-size:3.03209e-05px;font-family:Skia;-inkscape-font-specification:'Skia, @wght=1.76,wdth=0.89';font-variation-settings:'wdth' 0.89, 'wght' 1.76;letter-spacing:-6.01604e-07px;fill:#ffffff;stroke:#000000;stroke-width:1.30696e-06;stroke-linecap:round;paint-order:fill markers stroke" /><path
       d="m 8.0737116e-4,-0.00194157 h -4.18985e-6 v -3.23e-6 h 4.18985e-6 z m -8.883e-8,1.762e-5 h -4.01219e-6 q 1.481e-8,-6.4e-7 2.961e-8,-2.82e-6 1.481e-8,-2.17e-6 1.481e-8,-4.6e-6 0,-1.72e-6 -1.481e-8,-3.6e-6 0,-1.88e-6 -2.961e-8,-4.07e-6 h 4.01219e-6 q -1.481e-8,2.06e-6 -2.961e-8,3.76e-6 -1.481e-8,1.69e-6 -1.481e-8,3.75e-6 0,3.34e-6 1.481e-8,5.15e-6 2.961e-8,1.8e-6 2.961e-8,2.43e-6 z"
       id="path8318"
       style="font-size:3.03209e-05px;font-family:Skia;-inkscape-font-specification:'Skia, @wght=1.76,wdth=0.89';font-variation-settings:'wdth' 0.89, 'wght' 1.76;letter-spacing:-6.01604e-07px;fill:#ffffff;stroke:#000000;stroke-width:1.30696e-06;stroke-linecap:round;paint-order:fill markers stroke" /><path
       d="m 8.2121936e-4,-0.001924 q -7.2545e-7,0 -2.79817e-6,0 -2.05791e-6,-1e-8 -3.28673e-6,-1e-8 -1.45091e-6,0 -3.18311e-6,1e-8 -1.71739e-6,0 -2.13193e-6,0 l -9.4753e-7,-1.88e-6 q 1.02155e-6,-1.43e-6 2.87219e-6,-4.25e-6 1.85064e-6,-2.83e-6 3.89375e-6,-5.89e-6 l -1.481e-8,-3e-8 q -4.5895e-7,0 -1.13999e-6,0 -6.8104e-7,0 -1.18441e-6,0 -9.0311e-7,0 -2.29479e-6,2e-8 -1.39169e-6,0 -1.70259e-6,0 v -2.92e-6 q 4.4415e-7,0 2.25037e-6,10e-9 1.80623e-6,0 3.04986e-6,0 1.27324e-6,0 3.06466e-6,0 1.79142e-6,-10e-9 2.32441e-6,-10e-9 l 1.02155e-6,1.76e-6 q -2.07272e-6,2.98e-6 -4.20465e-6,6.16e-6 -2.11714e-6,3.18e-6 -2.66493e-6,4.07e-6 l 1.481e-8,3e-8 q 5.3298e-7,0 1.22882e-6,0 6.9584e-7,0 1.48052e-6,0 1.86544e-6,0 2.93141e-6,0 1.06597e-6,-10e-9 1.42129e-6,-10e-9 z"
       id="path8320"
       style="font-size:3.03209e-05px;font-family:Skia;-inkscape-font-specification:'Skia, @wght=1.76,wdth=0.89';font-variation-settings:'wdth' 0.89, 'wght' 1.76;letter-spacing:-6.01604e-07px;fill:#ffffff;stroke:#000000;stroke-width:1.30696e-06;stroke-linecap:round;paint-order:fill markers stroke" /><path
       d="m 8.3364627e-4,-0.001924 q -7.2545e-7,0 -2.79817e-6,0 -2.05791e-6,-1e-8 -3.28674e-6,-1e-8 -1.4509e-6,0 -3.1831e-6,1e-8 -1.71739e-6,0 -2.13194e-6,0 l -9.4753e-7,-1.88e-6 q 1.02156e-6,-1.43e-6 2.8722e-6,-4.25e-6 1.85064e-6,-2.83e-6 3.89375e-6,-5.89e-6 l -1.481e-8,-3e-8 q -4.5896e-7,0 -1.13999e-6,0 -6.8104e-7,0 -1.18441e-6,0 -9.0312e-7,0 -2.2948e-6,2e-8 -1.39168e-6,0 -1.70259e-6,0 v -2.92e-6 q 4.4416e-7,0 2.25038e-6,10e-9 1.80623e-6,0 3.04986e-6,0 1.27324e-6,0 3.06466e-6,0 1.79142e-6,-10e-9 2.3244e-6,-10e-9 l 1.02156e-6,1.76e-6 q -2.07272e-6,2.98e-6 -4.20466e-6,6.16e-6 -2.11713e-6,3.18e-6 -2.66492e-6,4.07e-6 l 1.48e-8,3e-8 q 5.3299e-7,0 1.22883e-6,0 6.9584e-7,0 1.48051e-6,0 1.86545e-6,0 2.93142e-6,0 1.06597e-6,-10e-9 1.42129e-6,-10e-9 z"
       id="path8322"
       style="font-size:3.03209e-05px;font-family:Skia;-inkscape-font-specification:'Skia, @wght=1.76,wdth=0.89';font-variation-settings:'wdth' 0.89, 'wght' 1.76;letter-spacing:-6.01604e-07px;fill:#ffffff;stroke:#000000;stroke-width:1.30696e-06;stroke-linecap:round;paint-order:fill markers stroke" /><path
       d="m 8.4715395e-4,-0.00193162 h -9.13476e-6 q 0,1.27e-6 5.3298e-7,2.28e-6 5.3299e-7,1e-6 1.64337e-6,1.64e-6 8.1428e-7,4.9e-7 1.76181e-6,7.1e-7 9.4753e-7,2.1e-7 2.11713e-6,2.1e-7 8.2909e-7,0 1.39169e-6,-3e-8 5.774e-7,-3e-8 8.5869e-7,-5e-8 l -3.9974e-7,2.94e-6 q -2.961e-7,3e-8 -8.735e-7,5e-8 -5.774e-7,3e-8 -1.4509e-6,3e-8 -2.33921e-6,0 -4.14544e-6,-5.7e-7 -1.80622e-6,-5.8e-7 -3.06466e-6,-1.72e-6 -1.06597e-6,-1.01e-6 -1.70259e-6,-2.44e-6 -6.3662e-7,-1.45e-6 -6.3662e-7,-3.11e-6 0,-1.73e-6 4.5896e-7,-3.07e-6 4.5896e-7,-1.34e-6 1.53973e-6,-2.56e-6 9.0312e-7,-1.03e-6 2.19116e-6,-1.57e-6 1.28805e-6,-5.5e-7 2.66493e-6,-5.5e-7 1.42129e-6,0 2.53167e-6,4.5e-7 1.12519e-6,4.4e-7 1.92467e-6,1.33e-6 9.4753e-7,1.05e-6 1.36207e-6,2.53e-6 4.1454e-7,1.47e-6 4.2935e-7,3.5e-6 z m -3.70128e-6,-1.9e-6 q -1.4805e-7,-1.6e-6 -8.2909e-7,-2.47e-6 -6.8103e-7,-8.9e-7 -1.86545e-6,-8.9e-7 -1.1696e-6,0 -1.92466e-6,8.7e-7 -7.4026e-7,8.6e-7 -9.9195e-7,2.49e-6 z"
       id="path8324"
       style="font-size:3.03209e-05px;font-family:Skia;-inkscape-font-specification:'Skia, @wght=1.76,wdth=0.89';font-variation-settings:'wdth' 0.89, 'wght' 1.76;letter-spacing:-6.01604e-07px;fill:#ffffff;stroke:#000000;stroke-width:1.30696e-06;stroke-linecap:round;paint-order:fill markers stroke" /><path
       d="m 8.6193487e-4,-0.00192395 h -3.96777e-6 q 0,-4.8e-7 1.48e-8,-2.34e-6 2.961e-8,-1.88e-6 2.961e-8,-2.98e-6 0,-9.3e-7 -1.48e-8,-2.29e-6 0,-1.37e-6 -1.481e-8,-1.99e-6 -1.48e-8,-1.46e-6 -4.1454e-7,-2.07e-6 -3.8494e-7,-6.1e-7 -1.40649e-6,-6.1e-7 -6.6623e-7,0 -1.58415e-6,3.9e-7 -9.1792e-7,3.8e-7 -1.747e-6,9e-7 0,1.2e-7 -1.481e-8,1.76e-6 0,1.65e-6 0,2.8e-6 0,1.64e-6 1.481e-8,3.91e-6 2.961e-8,2.26e-6 2.961e-8,2.52e-6 h -3.98258e-6 q 0,-4e-7 1.48e-8,-2.3e-6 2.961e-8,-1.91e-6 2.961e-8,-5.03e-6 0,-1.96e-6 -1.48e-8,-3.84e-6 0,-1.88e-6 -2.961e-8,-3.92e-6 h 3.89375e-6 l -1.481e-8,1.35e-6 2.961e-8,3e-8 q 1.31766e-6,-7.9e-7 2.69454e-6,-1.28e-6 1.39168e-6,-4.9e-7 2.47245e-6,-4.9e-7 1.85064e-6,0 2.90181e-6,1.2e-6 1.06597e-6,1.2e-6 1.06597e-6,3.2e-6 0,1.72e-6 -1.481e-8,2.93e-6 -1.48e-8,1.2e-6 -1.48e-8,2.02e-6 0,1.27e-6 1.48e-8,3.46e-6 2.961e-8,2.18e-6 2.961e-8,2.67e-6 z"
       id="path8326"
       style="font-size:3.03209e-05px;font-family:Skia;-inkscape-font-specification:'Skia, @wght=1.76,wdth=0.89';font-variation-settings:'wdth' 0.89, 'wght' 1.76;letter-spacing:-6.01604e-07px;fill:#ffffff;stroke:#000000;stroke-width:1.30696e-06;stroke-linecap:round;paint-order:fill markers stroke" /><path
       d="m 8.7692307e-4,-0.00192381 q -3.1091e-7,0 -8.7351e-7,0 -5.4779e-7,2e-8 -1.12519e-6,2e-8 -2.84258e-6,0 -4.57478e-6,-3.4e-7 -1.7322e-6,-3.4e-7 -3.02025e-6,-1.05e-6 -1.79142e-6,-1.01e-6 -2.72414e-6,-2.56e-6 -9.1792e-7,-1.56e-6 -9.1792e-7,-3.56e-6 0,-2.16e-6 1.05117e-6,-3.82e-6 1.05116e-6,-1.67e-6 3.06466e-6,-2.66e-6 1.08077e-6,-5.5e-7 2.42804e-6,-8.5e-7 1.36207e-6,-3.1e-7 2.72414e-6,-3.5e-7 l -2.961e-8,-6.68e-6 h 3.99739e-6 q 0,4.9e-7 -1.481e-8,4.12e-6 -1.48e-8,3.61e-6 -1.48e-8,7.37e-6 0,3.15e-6 1.48e-8,6.09e-6 1.481e-8,2.91e-6 1.481e-8,4.27e-6 z m -3.81973e-6,-9.4e-6 q 0,-6e-7 0,-1.4e-6 0,-8.2e-7 0,-1.37e-6 -9.7713e-7,0 -1.83583e-6,2.1e-7 -8.587e-7,2.1e-7 -1.53974e-6,6.4e-7 -9.7713e-7,5.8e-7 -1.53973e-6,1.58e-6 -5.4779e-7,1.01e-6 -5.4779e-7,2.37e-6 0,1.27e-6 4.8857e-7,2.18e-6 4.8857e-7,9e-7 1.33246e-6,1.51e-6 6.8104e-7,4.4e-7 1.55454e-6,6.8e-7 8.735e-7,2.2e-7 1.80623e-6,2.2e-7 5.922e-8,2e-8 1.1844e-7,2e-8 7.402e-8,0 1.4805e-7,0 0,-1.5e-7 0,-2e-6 1.48e-8,-1.87e-6 1.48e-8,-4.64e-6 z"
       id="path8328"
       style="font-size:3.03209e-05px;font-family:Skia;-inkscape-font-specification:'Skia, @wght=1.76,wdth=0.89';font-variation-settings:'wdth' 0.89, 'wght' 1.76;letter-spacing:-6.01604e-07px;fill:#ffffff;stroke:#000000;stroke-width:1.30696e-06;stroke-linecap:round;paint-order:fill markers stroke" /><path
       d="m 8.9314008e-4,-0.0019315 q 0,1.71e-6 -5.6259e-7,3.28e-6 -5.4779e-7,1.56e-6 -1.70259e-6,2.73e-6 -9.6233e-7,9.4e-7 -2.19116e-6,1.43e-6 -1.22883e-6,4.9e-7 -2.69453e-6,4.9e-7 -1.42129e-6,0 -2.69454e-6,-4.9e-7 -1.27324e-6,-5e-7 -2.20596e-6,-1.42e-6 -1.11038e-6,-1.14e-6 -1.68778e-6,-2.71e-6 -5.774e-7,-1.57e-6 -5.774e-7,-3.31e-6 0,-1.8e-6 5.0337e-7,-3.2e-6 5.0337e-7,-1.41e-6 1.58415e-6,-2.59e-6 9.6233e-7,-1.05e-6 2.26518e-6,-1.59e-6 1.31766e-6,-5.5e-7 2.79817e-6,-5.5e-7 1.51013e-6,0 2.76856e-6,5.1e-7 1.25844e-6,5e-7 2.25038e-6,1.55e-6 1.08077e-6,1.14e-6 1.61376e-6,2.61e-6 5.3298e-7,1.46e-6 5.3298e-7,3.26e-6 z m -3.95297e-6,7e-8 q 0,-1.16e-6 -2.961e-7,-2.25e-6 -2.813e-7,-1.1e-6 -9.0311e-7,-1.81e-6 -3.7013e-7,-4.4e-7 -8.8831e-7,-6.8e-7 -5.1818e-7,-2.5e-7 -1.11038e-6,-2.5e-7 -6.8104e-7,0 -1.18441e-6,2.5e-7 -4.8857e-7,2.5e-7 -9.1792e-7,7.9e-7 -5.3299e-7,6e-7 -8.2909e-7,1.67e-6 -2.813e-7,1.05e-6 -2.813e-7,2.21e-6 0,1.22e-6 2.813e-7,2.26e-6 2.961e-7,1.02e-6 9.3273e-7,1.75e-6 3.8493e-7,4.4e-7 8.883e-7,6.9e-7 5.1818e-7,2.4e-7 1.09558e-6,2.4e-7 6.3662e-7,0 1.16961e-6,-2.7e-7 5.3298e-7,-2.8e-7 9.1791e-7,-7.7e-7 5.4779e-7,-6.6e-7 8.2909e-7,-1.67e-6 2.961e-7,-1.02e-6 2.961e-7,-2.16e-6 z"
       id="path8330"
       style="font-size:3.03209e-05px;font-family:Skia;-inkscape-font-specification:'Skia, @wght=1.76,wdth=0.89';font-variation-settings:'wdth' 0.89, 'wght' 1.76;letter-spacing:-6.01604e-07px;fill:#ffffff;stroke:#000000;stroke-width:1.30696e-06;stroke-linecap:round;paint-order:fill markers stroke" /><path
       d="m 9.0512284e-4,-0.00193603 q -1.08078e-6,3.5e-7 -2.48727e-6,9.1e-7 -1.39168e-6,5.5e-7 -3.62725e-6,1.66e-6 0,3.9e-7 -1.481e-8,1.39e-6 0,9.9e-7 0,2.12e-6 0,1.6e-6 1.481e-8,3.6e-6 2.961e-8,1.98e-6 2.961e-8,2.4e-6 h -4.01219e-6 q 0,-5.1e-7 1.48e-8,-2.42e-6 2.961e-8,-1.92e-6 2.961e-8,-4.76e-6 0,-1.59e-6 -1.48e-8,-3.62e-6 -1.481e-8,-2.03e-6 -2.961e-8,-4.29e-6 h 3.93816e-6 l -2.961e-8,2.22e-6 4.442e-8,3e-8 q 1.4509e-6,-1.01e-6 2.9018e-6,-1.73e-6 1.45091e-6,-7.3e-7 2.20597e-6,-9.8e-7 z"
       id="path8332"
       style="font-size:3.03209e-05px;font-family:Skia;-inkscape-font-specification:'Skia, @wght=1.76,wdth=0.89';font-variation-settings:'wdth' 0.89, 'wght' 1.76;letter-spacing:-6.01604e-07px;fill:#ffffff;stroke:#000000;stroke-width:1.30696e-06;stroke-linecap:round;paint-order:fill markers stroke" /></g></svg>
