<?xml version="1.0" encoding="UTF-8" standalone="no"?>
<!-- Created with Inkscape (http://www.inkscape.org/) -->

<svg
   width="379.54092mm"
   height="449.35693mm"
   viewBox="0 0 0.0018073377 0.0015129863"
   version="1.1"
   id="svg5"
   xml:space="preserve"
   inkscape:version="1.2 (dc2aeda, 2022-05-15)"
   sodipodi:docname="quiz.svg"
   xmlns:inkscape="http://www.inkscape.org/namespaces/inkscape"
   xmlns:sodipodi="http://sodipodi.sourceforge.net/DTD/sodipodi-0.dtd"
   xmlns="http://www.w3.org/2000/svg"
   xmlns:svg="http://www.w3.org/2000/svg"><sodipodi:namedview
     id="namedview7"
     pagecolor="#d1d1d1"
     bordercolor="#000000"
     borderopacity="0.24705882"
     inkscape:showpageshadow="false"
     inkscape:pageopacity="0"
     inkscape:pagecheckerboard="false"
     inkscape:deskcolor="#d1d1d1"
     inkscape:document-units="px"
     showgrid="false"
     showborder="false"
     borderlayer="false"
     shape-rendering="crispEdges"
     inkscape:zoom="0.15602516"
     inkscape:cx="2666.2367"
     inkscape:cy="3070.0177"
     inkscape:window-width="1309"
     inkscape:window-height="740"
     inkscape:window-x="1570"
     inkscape:window-y="255"
     inkscape:window-maximized="0"
     inkscape:current-layer="layer1" /><defs
     id="defs2"><linearGradient
       id="linearGradient14035"
       inkscape:swatch="solid"><stop
         style="stop-color:#a05a2c;stop-opacity:1;"
         offset="0"
         id="stop14033" /></linearGradient><filter
       inkscape:collect="always"
       style="color-interpolation-filters:sRGB"
       id="filter7464"
       x="-0.19678099"
       y="-0.19678099"
       width="1.393562"
       height="1.393562"><feGaussianBlur
         inkscape:collect="always"
         stdDeviation="141.23386"
         id="feGaussianBlur7466" /></filter></defs><g
     inkscape:label="Layer 1"
     inkscape:groupmode="layer"
     id="layer1"
     transform="translate(-0.00170302,5.0835436e-4)"><path
       id="path3282"
       style="fill:#000000;fill-opacity:1;fill-rule:evenodd;stroke:#000000;stroke-width:0.000113368;stroke-dasharray:none"
       d="m 0.00176107,-6.1630514e-4 3.074e-5,0.00129186 c 2.19e-5,9.2274514e-4 0.00160778,9.2274514e-4 0.00162976,0 l 3.074e-5,-0.00129186 z" /><path
       sodipodi:type="star"
       style="opacity:0.455471;fill:#ffffff;fill-opacity:1;stroke:none;stroke-width:0;stroke-linecap:round;stroke-linejoin:miter;stroke-dasharray:none;stroke-opacity:1;paint-order:fill markers stroke;filter:url(#filter7464)"
       id="path7462"
       inkscape:flatsided="false"
       sodipodi:sides="12"
       sodipodi:cx="920.95685"
       sodipodi:cy="2796.98"
       sodipodi:r1="861.2652"
       sodipodi:r2="361.73138"
       sodipodi:arg1="-1.5707963"
       sodipodi:arg2="-1.3089969"
       inkscape:rounded="-3.469447e-18"
       inkscape:randomized="0"
       d="m 920.95687,1935.7148 93.62293,511.8595 337.0097,-396.4718 -174.8499,490.0948 490.0948,-174.8499 -396.4719,337.0096 511.8595,93.623 -511.8595,93.623 396.4719,337.0096 -490.0948,-174.8499 174.8498,490.0948 -337.0096,-396.4718 -93.62297,511.8595 L 827.33386,3146.3857 490.32423,3542.8575 665.17412,3052.7627 175.0793,3227.6126 571.55116,2890.6029 59.69165,2796.98 571.55117,2703.357 175.07932,2366.3474 665.17414,2541.1973 490.32427,2051.1024 827.33389,2447.5743 Z"
       transform="matrix(7.4500566e-7,0,0,8.4073264e-7,0.00192058,-0.00205794)"
       inkscape:transform-center-x="-0.0019888855"
       inkscape:transform-center-y="-54.875239" /><path
       sodipodi:type="star"
       style="opacity:1;fill:#ffffff;fill-opacity:1;stroke:none;stroke-width:9.44903e-05;stroke-linecap:round;stroke-linejoin:miter;stroke-dasharray:none;stroke-opacity:1;paint-order:fill markers stroke"
       id="path7286"
       inkscape:flatsided="false"
       sodipodi:sides="12"
       sodipodi:cx="920.95685"
       sodipodi:cy="2796.98"
       sodipodi:r1="861.2652"
       sodipodi:r2="172.25304"
       sodipodi:arg1="-1.5707963"
       sodipodi:arg2="-1.3089969"
       inkscape:rounded="-3.469447e-18"
       inkscape:randomized="0"
       d="m 920.95687,1935.7148 44.58235,694.8815 386.05028,-579.4938 -308.8314,624.0762 624.0763,-308.8313 -579.4939,386.0502 694.8815,44.5824 -694.8815,44.5824 579.4939,386.0502 -624.0763,-308.8313 308.8313,624.0762 L 965.53921,2963.3636 920.95683,3658.2452 876.37448,2963.3636 490.32423,3542.8575 799.15555,2918.7813 175.0793,3227.6126 754.57319,2841.5623 59.69165,2796.98 754.57319,2752.3976 175.07932,2366.3474 799.15556,2675.1787 490.32427,2051.1024 876.37449,2630.5963 Z"
       transform="matrix(7.4500566e-7,0,0,8.4073264e-7,0.00192058,-0.00205794)"
       inkscape:transform-center-x="-0.0019888855"
       inkscape:transform-center-y="-54.875239" /></g></svg>
