<svg
   width="405.68811mm"
   height="553.76086mm"
   viewBox="0 0 0.0019318481 0.0018645147"
   version="1.1"
   id="svg5"
   xml:space="preserve"
   xmlns:xlink="http://www.w3.org/1999/xlink"
   xmlns="http://www.w3.org/2000/svg"
   xmlns:svg="http://www.w3.org/2000/svg"><defs
     id="defs2"><linearGradient
       id="linearGradient24797"><stop
         id="stop24789"
         style="stop-color:#f0f0f0;stop-opacity:1;"
         offset="0" /><stop
         id="stop24791"
         style="stop-color:#f4f4f4"
         offset=".5" /><stop
         id="stop24793"
         style="stop-color:#eeeeee;stop-opacity:1;"
         offset="0.78274" /><stop
         id="stop24795"
         style="stop-color:#d0d0d0;stop-opacity:1;"
         offset="1" /></linearGradient><linearGradient
       id="linearGradient14035"><stop
         style="stop-color:#a05a2c;stop-opacity:1;"
         offset="0"
         id="stop14033" /></linearGradient><linearGradient
       id="linearGradient4705"
       y2="531.27002"
       gradientUnits="userSpaceOnUse"
       y1="528.84003"
       gradientTransform="matrix(4.3529338e-6,0,0,4.3529338e-6,6.2775849e-4,0.00110838)"
       x2="643.67999"
       x1="206.85001"><stop
         id="stop3169-6"
         style="stop-color:#fffdd2;stop-opacity:.75439"
         offset="0" /><stop
         id="stop3171-8"
         style="stop-color:#ffefc8;stop-opacity:0.82455999;"
         offset="0.11353" /><stop
         id="stop3173-8"
         style="stop-color:#fff7c3;stop-opacity:0.83332998;"
         offset="0.54392999" /><stop
         id="stop3175-2"
         style="stop-color:#fff0ce;stop-opacity:0.82455999;"
         offset="0.81915998" /><stop
         id="stop3177-0"
         style="stop-color:#fff1b9;stop-opacity:0.81579;"
         offset="1" /></linearGradient><linearGradient
       id="linearGradient4431-7"
       y2="475.34"
       xlink:href="#linearGradient3182-5-4"
       gradientUnits="userSpaceOnUse"
       x2="220.55"
       y1="475.34"
       x1="676.19"
       gradientTransform="matrix(4.3529338e-6,0,0,4.3529338e-6,6.2773311e-4,0.00110838)" /><linearGradient
       id="linearGradient3182-5-4"><stop
         id="stop3184-6-1"
         style="stop-color:#e7e7e7;stop-opacity:1;"
         offset="0" /><stop
         id="stop3192-2-4"
         style="stop-color:#f4f4f4"
         offset=".5" /><stop
         id="stop3194-0-6"
         style="stop-color:#ffffff;stop-opacity:1;"
         offset="0.78274" /><stop
         id="stop3186-3-0"
         style="stop-color:#f5f5f5;stop-opacity:1;"
         offset="1" /></linearGradient><linearGradient
       id="linearGradient4760"
       y2="526.30597"
       xlink:href="#linearGradient24797"
       gradientUnits="userSpaceOnUse"
       y1="531.27002"
       x2="665.50732"
       x1="252.63"
       gradientTransform="matrix(4.3529338e-6,0,0,4.3529338e-6,6.2773311e-4,0.00110838)" /><linearGradient
       id="linearGradient4823"
       y2="475.34"
       gradientUnits="userSpaceOnUse"
       x2="220.55"
       y1="475.34"
       x1="676.19"
       gradientTransform="matrix(4.3529338e-6,0,0,4.3529338e-6,6.2773311e-4,0.00110838)"><stop
         id="stop13332"
         style="stop-color:#acacac"
         offset="0" /><stop
         id="stop13334"
         style="stop-color:#f3f3f3;stop-opacity:0;"
         offset="1" /></linearGradient><radialGradient
       id="radialGradient7264"
       gradientUnits="userSpaceOnUse"
       cy="405.23999"
       cx="344.92001"
       gradientTransform="matrix(5.3467086e-6,-1.5716703e-7,2.0221989e-7,6.8780707e-6,6.5015943e-4,6.1945513e-4)"
       r="115.75"><stop
         id="stop5893"
         style="stop-color:#fffefa;stop-opacity:1;"
         offset="0" /><stop
         id="stop5895"
         style="stop-color:#f2e6ac;stop-opacity:1;"
         offset="0.47354999" /><stop
         id="stop5897"
         style="stop-color:#f6f6f6;stop-opacity:1;"
         offset="0.69520003" /><stop
         id="stop5899"
         style="stop-color:#f0f0e7;stop-opacity:1;"
         offset="0.84684998" /><stop
         id="stop5901"
         style="stop-color:#c3c3c3;stop-opacity:0.55555558;"
         offset="1" /></radialGradient></defs><g
     id="layer1"
     transform="translate(-0.00160823,-0.0023092)"><g
       id="g5800"><path
         id="path4411"
         d="m 0.00164449,0.00240238 c -5.705e-5,7.3564e-4 -1.4345e-4,0.00162386 9.2966e-4,0.00232882 0.00107313,-7.0496e-4 9.8672e-4,-0.00159318 9.2965e-4,-0.00232882 -3.5601e-4,-4.36e-6 -6.5093e-4,-4.789e-5 -9.2965e-4,-2.9165e-4 -2.7874e-4,2.4376e-4 -5.7368e-4,2.8729e-4 -9.2966e-4,2.9165e-4 z"
         style="fill:url(#linearGradient4431-7);stroke:url(#linearGradient4823);stroke-width:1.30588e-05" /><path
         id="path4415"
         d="m 0.00175575,0.00252422 c -5.023e-5,6.4767e-4 -1.2628e-4,0.00142963 8.184e-4,0.00205027 9.4471e-4,-6.2064e-4 8.6863e-4,-0.0014026 8.1844e-4,-0.00205027 -3.1342e-4,-3.84e-6 -5.7307e-4,-4.214e-5 -8.1844e-4,-2.5678e-4 -2.4538e-4,2.1464e-4 -5.0499e-4,2.5294e-4 -8.184e-4,2.5678e-4 z"
         style="fill:url(#linearGradient4760);stroke-width:4.35293e-06" /><path
         id="path4413-3"
         style="fill:none;stroke:#797979;stroke-width:2.61176e-05"
         d="m 0.00175578,0.00252422 c -5.024e-5,6.4767e-4 -1.2628e-4,0.00142963 8.1839e-4,0.00205027 9.4472e-4,-6.2064e-4 8.6863e-4,-0.0014026 8.1844e-4,-0.00205027 -3.1341e-4,-3.83e-6 -5.7306e-4,-4.215e-5 -8.1844e-4,-2.5676e-4 -2.4537e-4,2.1461e-4 -5.0498e-4,2.5293e-4 -8.1839e-4,2.5676e-4 z" /><path
         id="path4413"
         style="opacity:1;fill:none;stroke:url(#linearGradient4705);stroke-width:2.17647e-05"
         d="m 0.00175578,0.00252422 c -5.024e-5,6.4767e-4 -1.2628e-4,0.00142963 8.1839e-4,0.00205027 9.4472e-4,-6.2064e-4 8.6863e-4,-0.0014026 8.1844e-4,-0.00205027 -3.1341e-4,-3.83e-6 -5.7306e-4,-4.215e-5 -8.1844e-4,-2.5676e-4 -2.4537e-4,2.1461e-4 -5.0498e-4,2.5293e-4 -8.1839e-4,2.5676e-4 z" /><g
         id="g5308"
         transform="matrix(4.3529338e-6,0,0,4.3529338e-6,0.0011263,0.00216549)"><circle
           id="path4217-59-6"
           style="fill:url(#radialGradient24353)"
           transform="matrix(2.5,0,0,2.5,-220.03,-359.26)"
           cx="221.06311"
           cy="147.11755"
           r="2.6973217" /><circle
           id="path4217-59-6-5"
           style="fill:url(#radialGradient24355)"
           transform="matrix(2.5,0,0,2.5,-18.454,-297.36)"
           cx="221.06311"
           cy="147.11755"
           r="2.6973217" /><circle
           id="path4217-59-6-1"
           style="fill:url(#radialGradient24357)"
           transform="matrix(2.5,0,0,2.5,-420.45,-297.36)"
           cx="221.06311"
           cy="147.11755"
           r="2.6973217" /><circle
           id="path4217-59-6-1-2"
           style="fill:url(#radialGradient24359)"
           transform="matrix(2.5,0,0,2.5,-427.82,-154.15)"
           cx="221.06311"
           cy="147.11755"
           r="2.6973217" /><circle
           id="path4217-59-6-1-4"
           style="fill:url(#radialGradient24361)"
           transform="matrix(2.5,0,0,2.5,-390.43,18.045)"
           cx="221.06311"
           cy="147.11755"
           r="2.6973217" /><circle
           id="path4217-59-6-1-9"
           style="fill:url(#radialGradient24363)"
           transform="matrix(2.5,0,0,2.5,-220.03,203.97)"
           cx="221.06311"
           cy="147.11755"
           r="2.6973217" /><circle
           id="path4217-59-6-1-0"
           style="fill:url(#radialGradient24365)"
           transform="matrix(2.5,0,0,2.5,-49.086,18.045)"
           cx="221.06311"
           cy="147.11755"
           r="2.6973217" /><circle
           id="path4217-59-6-1-92"
           style="fill:url(#radialGradient24367)"
           transform="matrix(2.5,0,0,2.5,-11.243,-153.69)"
           cx="221.06311"
           cy="147.11755"
           r="2.6973217" /></g><path
         id="path7215"
         style="opacity:0.9;fill:url(#radialGradient7264);stroke:#482e00;stroke-width:4.35293e-06px"
         d="m 0.00283193,0.00406189 c -1.0609e-4,-1.949e-5 -1.9602e-4,-6.32e-5 -2.5485e-4,-1.5327e-4 -5.883e-5,9.006e-5 -1.4876e-4,1.3378e-4 -2.5485e-4,1.5327e-4 1.0091e-4,-2.0565e-4 1.6401e-4,-4.1129e-4 1.7286e-4,-6.2509e-4 -1.6415e-4,6.3e-6 -3.227e-4,6.938e-5 -4.8122e-4,1.7025e-4 1.502e-5,-1.0605e-4 4.873e-5,-1.9595e-4 1.1816e-4,-2.5475e-4 -6.943e-5,-5.881e-5 -1.0314e-4,-1.487e-4 -1.1816e-4,-2.5475e-4 1.5855e-4,1.0086e-4 3.1709e-4,1.6394e-4 4.8122e-4,1.7043e-4 -8.85e-6,-2.136e-4 -7.195e-5,-4.1924e-4 -1.7286e-4,-6.2487e-4 1.0609e-4,1.949e-5 1.9602e-4,6.32e-5 2.5485e-4,1.5326e-4 5.883e-5,-9.005e-5 1.4876e-4,-1.3377e-4 2.5485e-4,-1.5326e-4 -1.0091e-4,2.0565e-4 -1.64e-4,4.1129e-4 -1.7358e-4,6.2487e-4 1.6341e-4,-6.49e-6 3.2195e-4,-6.957e-5 4.8052e-4,-1.7043e-4 -1.503e-5,1.0605e-4 -4.873e-5,1.9594e-4 -1.1816e-4,2.5475e-4 6.943e-5,5.88e-5 1.0313e-4,1.487e-4 1.1816e-4,2.5475e-4 -1.5855e-4,-1.0087e-4 -3.1709e-4,-1.6394e-4 -4.8052e-4,-1.7025e-4 9.58e-6,2.1379e-4 7.267e-5,4.1944e-4 1.7358e-4,6.2509e-4 z" /><ellipse
         id="path4217-59-6-1-9-8"
         style="fill:url(#radialGradient24369);stroke-width:3.92495e-05"
         cx="0.002576109"
         cy="0.0033524891"
         rx="0.00010587331"
         ry="0.00010586392" /></g></g></svg>
