<?xml version="1.0" encoding="UTF-8"?>
<!-- Created with Inkscape (http://www.inkscape.org/) -->
<svg width="405.69mm" height="553.76mm" version="1.1" viewBox="0 0 .0019318 .0018645" xml:space="preserve" xmlns="http://www.w3.org/2000/svg" xmlns:xlink="http://www.w3.org/1999/xlink"><defs><linearGradient id="linearGradient4431-7" x1="676.19" x2="220.55" y1="475.34" y2="475.34" gradientTransform="matrix(4.3529e-6 0 0 4.3529e-6 .00062773 .0011084)" gradientUnits="userSpaceOnUse"><stop stop-color="#e7e7e7" offset="0"/><stop stop-color="#f4f4f4" offset=".5"/><stop stop-color="#fff" offset=".78274"/><stop stop-color="#f5f5f5" offset="1"/></linearGradient><linearGradient id="linearGradient4823" x1="676.19" x2="220.55" y1="475.34" y2="475.34" gradientTransform="matrix(4.3529e-6 0 0 4.3529e-6 .00062773 .0011084)" gradientUnits="userSpaceOnUse"><stop stop-color="#acacac" offset="0"/><stop stop-color="#f3f3f3" stop-opacity="0" offset="1"/></linearGradient><linearGradient id="linearGradient4760" x1="252.63" x2="665.51" y1="531.27" y2="526.31" gradientTransform="matrix(4.3529e-6 0 0 4.3529e-6 .00062773 .0011084)" gradientUnits="userSpaceOnUse"><stop stop-color="#fff" offset="0"/><stop stop-color="#f4f4f4" offset=".5"/><stop stop-color="#eee" offset=".78274"/><stop stop-color="#d0d0d0" offset="1"/></linearGradient><linearGradient id="linearGradient4705" x1="206.85" x2="643.68" y1="528.84" y2="531.27" gradientTransform="matrix(4.3529e-6 0 0 4.3529e-6 .00062776 .0011084)" gradientUnits="userSpaceOnUse"><stop stop-color="#fffdd2" stop-opacity=".75439" offset="0"/><stop stop-color="#ffefc8" stop-opacity=".82456" offset=".11353"/><stop stop-color="#fff7c3" stop-opacity=".83333" offset=".54393"/><stop stop-color="#fff0ce" stop-opacity=".82456" offset=".81916"/><stop stop-color="#fff1b9" stop-opacity=".81579" offset="1"/></linearGradient><radialGradient id="radialGradient7264" cx="344.92" cy="405.24" r="115.75" gradientTransform="matrix(5.3467e-6 -1.5717e-7 2.0222e-7 6.8781e-6 .00065016 .00061946)" gradientUnits="userSpaceOnUse"><stop stop-color="#fffefa" offset="0"/><stop stop-color="#f2e6ac" offset=".47355"/><stop stop-color="#f6f6f6" offset=".6952"/><stop stop-color="#f0f0e7" offset=".84685"/><stop stop-color="#c3c3c3" stop-opacity=".55556" offset="1"/></radialGradient></defs><g transform="translate(.00074543 .0013559)"><g transform="translate(-.0023537 -.0038442)"><path d="m0.0016445 0.0024024c-5.705e-5 7.3564e-4 -1.4345e-4 0.0016239 9.2966e-4 0.0023288 0.0010731-7.0496e-4 9.8672e-4 -0.0015932 9.2965e-4 -0.0023288-3.5601e-4 -4.36e-6 -6.5093e-4 -4.789e-5 -9.2965e-4 -2.9165e-4 -2.7874e-4 2.4376e-4 -5.7368e-4 2.8729e-4 -9.2966e-4 2.9165e-4z" fill="url(#linearGradient4431-7)" stroke="url(#linearGradient4823)" stroke-width="1.3059e-5"/><path d="m0.0017558 0.0025242c-5.023e-5 6.4767e-4 -1.2628e-4 0.0014296 8.184e-4 0.0020503 9.4471e-4 -6.2064e-4 8.6863e-4 -0.0014026 8.1844e-4 -0.0020503-3.1342e-4 -3.84e-6 -5.7307e-4 -4.214e-5 -8.1844e-4 -2.5678e-4 -2.4538e-4 2.1464e-4 -5.0499e-4 2.5294e-4 -8.184e-4 2.5678e-4z" fill="url(#linearGradient4760)" stroke-width="4.3529e-6"/><path d="m0.0017558 0.0025242c-5.024e-5 6.4767e-4 -1.2628e-4 0.0014296 8.1839e-4 0.0020503 9.4472e-4 -6.2064e-4 8.6863e-4 -0.0014026 8.1844e-4 -0.0020503-3.1341e-4 -3.83e-6 -5.7306e-4 -4.215e-5 -8.1844e-4 -2.5676e-4 -2.4537e-4 2.1461e-4 -5.0498e-4 2.5293e-4 -8.1839e-4 2.5676e-4z" fill="none" stroke="#797979" stroke-width="2.6118e-5"/><path d="m0.0017558 0.0025242c-5.024e-5 6.4767e-4 -1.2628e-4 0.0014296 8.1839e-4 0.0020503 9.4472e-4 -6.2064e-4 8.6863e-4 -0.0014026 8.1844e-4 -0.0020503-3.1341e-4 -3.83e-6 -5.7306e-4 -4.215e-5 -8.1844e-4 -2.5676e-4 -2.4537e-4 2.1461e-4 -5.0498e-4 2.5293e-4 -8.1839e-4 2.5676e-4z" fill="none" stroke="url(#linearGradient4705)" stroke-width="2.1765e-5"/><g transform="matrix(4.3529e-6 0 0 4.3529e-6 .0011263 .0021655)"><circle transform="matrix(2.5,0,0,2.5,-220.03,-359.26)" cx="221.06" cy="147.12" r="2.6973" fill="url(#radialGradient24353)"/><circle transform="matrix(2.5,0,0,2.5,-18.454,-297.36)" cx="221.06" cy="147.12" r="2.6973" fill="url(#radialGradient24355)"/><circle transform="matrix(2.5,0,0,2.5,-420.45,-297.36)" cx="221.06" cy="147.12" r="2.6973" fill="url(#radialGradient24357)"/><circle transform="matrix(2.5,0,0,2.5,-427.82,-154.15)" cx="221.06" cy="147.12" r="2.6973" fill="url(#radialGradient24359)"/><circle transform="matrix(2.5,0,0,2.5,-390.43,18.045)" cx="221.06" cy="147.12" r="2.6973" fill="url(#radialGradient24361)"/><circle transform="matrix(2.5,0,0,2.5,-220.03,203.97)" cx="221.06" cy="147.12" r="2.6973" fill="url(#radialGradient24363)"/><circle transform="matrix(2.5,0,0,2.5,-49.086,18.045)" cx="221.06" cy="147.12" r="2.6973" fill="url(#radialGradient24365)"/><circle transform="matrix(2.5,0,0,2.5,-11.243,-153.69)" cx="221.06" cy="147.12" r="2.6973" fill="url(#radialGradient24367)"/></g><path d="m0.0028319 0.0040619c-1.0609e-4 -1.949e-5 -1.9602e-4 -6.32e-5 -2.5485e-4 -1.5327e-4 -5.883e-5 9.006e-5 -1.4876e-4 1.3378e-4 -2.5485e-4 1.5327e-4 1.0091e-4 -2.0565e-4 1.6401e-4 -4.1129e-4 1.7286e-4 -6.2509e-4 -1.6415e-4 6.3e-6 -3.227e-4 6.938e-5 -4.8122e-4 1.7025e-4 1.502e-5 -1.0605e-4 4.873e-5 -1.9595e-4 1.1816e-4 -2.5475e-4 -6.943e-5 -5.881e-5 -1.0314e-4 -1.487e-4 -1.1816e-4 -2.5475e-4 1.5855e-4 1.0086e-4 3.1709e-4 1.6394e-4 4.8122e-4 1.7043e-4 -8.85e-6 -2.136e-4 -7.195e-5 -4.1924e-4 -1.7286e-4 -6.2487e-4 1.0609e-4 1.949e-5 1.9602e-4 6.32e-5 2.5485e-4 1.5326e-4 5.883e-5 -9.005e-5 1.4876e-4 -1.3377e-4 2.5485e-4 -1.5326e-4 -1.0091e-4 2.0565e-4 -1.64e-4 4.1129e-4 -1.7358e-4 6.2487e-4 1.6341e-4 -6.49e-6 3.2195e-4 -6.957e-5 4.8052e-4 -1.7043e-4 -1.503e-5 1.0605e-4 -4.873e-5 1.9594e-4 -1.1816e-4 2.5475e-4 6.943e-5 5.88e-5 1.0313e-4 1.487e-4 1.1816e-4 2.5475e-4 -1.5855e-4 -1.0087e-4 -3.1709e-4 -1.6394e-4 -4.8052e-4 -1.7025e-4 9.58e-6 2.1379e-4 7.267e-5 4.1944e-4 1.7358e-4 6.2509e-4z" fill="url(#radialGradient7264)" opacity=".9" stroke="#482e00" stroke-width="4.3529e-6px"/><ellipse cx=".0025761" cy=".0033525" rx=".00010587" ry=".00010586" fill="url(#radialGradient24369)" stroke-width="3.925e-5"/></g></g></svg>
